<svg width="5342" height="598" viewBox="0 0 5342 598" fill="none" xmlns="http://www.w3.org/2000/svg">
<mask id="path-1-outside-1_317_4" maskUnits="userSpaceOnUse" x="0.359375" y="50.125" width="908" height="533" fill="black">
<rect fill="white" x="0.359375" y="50.125" width="908" height="533"/>
<path d="M625.073 94.3047H693.432V231.023H659.253V265.203H625.073V299.383H590.893V333.562H556.714V367.742H522.534V401.922H488.354V436.102H454.175V470.281H419.995V572.82H351.635V436.102H385.815V401.922H419.995V367.742H454.175V333.562H488.354V299.383H522.534V265.203H556.714V231.023H590.893V196.844H625.073V94.3047Z"/>
<path d="M693.007 538.641V572.82H624.648V504.461H658.828V470.281H693.007V436.102H727.187V401.922H761.367V367.742H795.546V333.562H829.726V299.383H795.546V265.203H761.367V231.023H727.187V196.844H693.007V162.664H658.828V128.484H624.648V60.125H693.007V94.3047H727.187V128.484H761.367V162.664H795.546V196.844H829.726V231.023H863.906V265.203H898.085V367.742H863.906V401.922H829.726V436.102H795.546V470.281H761.367V504.461H727.187V538.641H693.007Z"/>
<path d="M488.45 94.3047H556.809V231.023H522.629V265.203H488.45V299.383H454.27V333.562H420.09V367.742H385.911V401.922H351.731V436.102H317.551V470.281H283.371V572.82H215.012V436.102H249.192V401.922H283.371V367.742H317.551V333.562H351.731V299.383H385.911V265.203H420.09V231.023H454.27V196.844H488.45V94.3047Z"/>
<path d="M181.258 538.641V504.461H147.078V470.281H112.898V436.102H78.7188V401.922H44.5391V367.742H10.3594V265.203H44.5391V231.023H78.7188V196.844H112.898V162.664H147.078V128.484H181.258V94.3047H215.438V60.125H283.797V128.484H249.617V162.664H215.438V196.844H181.258V231.023H147.078V265.203H112.898V299.383H78.7188V333.562H112.898V367.742H147.078V401.922H181.258V436.102H215.438V470.281H249.617V504.461H283.797V572.82H215.438V538.641H181.258Z"/>
</mask>
<path d="M625.073 94.3047H693.432V231.023H659.253V265.203H625.073V299.383H590.893V333.562H556.714V367.742H522.534V401.922H488.354V436.102H454.175V470.281H419.995V572.82H351.635V436.102H385.815V401.922H419.995V367.742H454.175V333.562H488.354V299.383H522.534V265.203H556.714V231.023H590.893V196.844H625.073V94.3047Z" fill="url(#paint0_linear_317_4)"/>
<path d="M693.007 538.641V572.82H624.648V504.461H658.828V470.281H693.007V436.102H727.187V401.922H761.367V367.742H795.546V333.562H829.726V299.383H795.546V265.203H761.367V231.023H727.187V196.844H693.007V162.664H658.828V128.484H624.648V60.125H693.007V94.3047H727.187V128.484H761.367V162.664H795.546V196.844H829.726V231.023H863.906V265.203H898.085V367.742H863.906V401.922H829.726V436.102H795.546V470.281H761.367V504.461H727.187V538.641H693.007Z" fill="url(#paint1_linear_317_4)"/>
<path d="M488.45 94.3047H556.809V231.023H522.629V265.203H488.45V299.383H454.27V333.562H420.09V367.742H385.911V401.922H351.731V436.102H317.551V470.281H283.371V572.82H215.012V436.102H249.192V401.922H283.371V367.742H317.551V333.562H351.731V299.383H385.911V265.203H420.09V231.023H454.27V196.844H488.45V94.3047Z" fill="url(#paint2_linear_317_4)"/>
<path d="M181.258 538.641V504.461H147.078V470.281H112.898V436.102H78.7188V401.922H44.5391V367.742H10.3594V265.203H44.5391V231.023H78.7188V196.844H112.898V162.664H147.078V128.484H181.258V94.3047H215.438V60.125H283.797V128.484H249.617V162.664H215.438V196.844H181.258V231.023H147.078V265.203H112.898V299.383H78.7188V333.562H112.898V367.742H147.078V401.922H181.258V436.102H215.438V470.281H249.617V504.461H283.797V572.82H215.438V538.641H181.258Z" fill="url(#paint3_linear_317_4)"/>
<path d="M625.073 94.3047H693.432V231.023H659.253V265.203H625.073V299.383H590.893V333.562H556.714V367.742H522.534V401.922H488.354V436.102H454.175V470.281H419.995V572.82H351.635V436.102H385.815V401.922H419.995V367.742H454.175V333.562H488.354V299.383H522.534V265.203H556.714V231.023H590.893V196.844H625.073V94.3047Z" stroke="url(#paint4_linear_317_4)" stroke-width="20" mask="url(#path-1-outside-1_317_4)"/>
<path d="M693.007 538.641V572.82H624.648V504.461H658.828V470.281H693.007V436.102H727.187V401.922H761.367V367.742H795.546V333.562H829.726V299.383H795.546V265.203H761.367V231.023H727.187V196.844H693.007V162.664H658.828V128.484H624.648V60.125H693.007V94.3047H727.187V128.484H761.367V162.664H795.546V196.844H829.726V231.023H863.906V265.203H898.085V367.742H863.906V401.922H829.726V436.102H795.546V470.281H761.367V504.461H727.187V538.641H693.007Z" stroke="url(#paint5_linear_317_4)" stroke-width="20" mask="url(#path-1-outside-1_317_4)"/>
<path d="M488.45 94.3047H556.809V231.023H522.629V265.203H488.45V299.383H454.27V333.562H420.09V367.742H385.911V401.922H351.731V436.102H317.551V470.281H283.371V572.82H215.012V436.102H249.192V401.922H283.371V367.742H317.551V333.562H351.731V299.383H385.911V265.203H420.09V231.023H454.27V196.844H488.45V94.3047Z" stroke="url(#paint6_linear_317_4)" stroke-width="20" mask="url(#path-1-outside-1_317_4)"/>
<path d="M181.258 538.641V504.461H147.078V470.281H112.898V436.102H78.7188V401.922H44.5391V367.742H10.3594V265.203H44.5391V231.023H78.7188V196.844H112.898V162.664H147.078V128.484H181.258V94.3047H215.438V60.125H283.797V128.484H249.617V162.664H215.438V196.844H181.258V231.023H147.078V265.203H112.898V299.383H78.7188V333.562H112.898V367.742H147.078V401.922H181.258V436.102H215.438V470.281H249.617V504.461H283.797V572.82H215.438V538.641H181.258Z" stroke="url(#paint7_linear_317_4)" stroke-width="20" mask="url(#path-1-outside-1_317_4)"/>
<path d="M1063.9 236.68H1053.9V266.454L1071.87 242.716L1063.9 236.68ZM1092.4 211.828L1097.16 220.621L1097.18 220.609L1097.21 220.598L1092.4 211.828ZM1179.5 218.44L1173.24 226.24L1173.29 226.28L1173.34 226.319L1179.5 218.44ZM1208.45 262.444L1198.93 265.492L1198.94 265.526L1198.95 265.561L1208.45 262.444ZM1206.86 395.824L1197.5 392.289L1206.86 395.824ZM1174.25 441.424L1180.33 449.363L1180.34 449.358L1180.35 449.353L1174.25 441.424ZM1059.8 427.972L1067.77 421.943L1052.8 402.124L1049.87 426.792L1059.8 427.972ZM1057.06 451V461H1065.94L1066.99 452.18L1057.06 451ZM1003.71 451H993.708V461H1003.71V451ZM1003.71 113.104L1002.65 103.16L993.708 104.108V113.104H1003.71ZM1063.9 106.72H1073.9V95.6033L1062.85 96.7757L1063.9 106.72ZM1142.1 393.316L1133.77 387.791L1133.77 387.791L1142.1 393.316ZM1149.63 281.824L1140.02 284.587L1140.04 284.659L1140.06 284.731L1149.63 281.824ZM1134.35 255.832L1128.04 263.588L1128.14 263.667L1128.24 263.745L1134.35 255.832ZM1083.96 256.972L1077.79 249.103L1077.75 249.133L1077.72 249.163L1083.96 256.972ZM1063.9 279.544L1055.49 274.129L1053.9 276.602V279.544H1063.9ZM1063.9 387.616H1053.9V390.548L1055.48 393.016L1063.9 387.616ZM1082.14 406.312L1076.81 414.771L1076.81 414.771L1082.14 406.312ZM1071.87 242.716C1079.13 233.13 1087.56 225.821 1097.16 220.621L1087.64 203.035C1075.35 209.691 1064.78 218.95 1055.93 230.644L1071.87 242.716ZM1097.21 220.598C1106.81 215.333 1117.09 212.708 1128.2 212.708V192.708C1113.76 192.708 1100.18 196.163 1087.59 203.058L1097.21 220.598ZM1128.2 212.708C1147.65 212.708 1162.36 217.513 1173.24 226.24L1185.75 210.64C1170.49 198.39 1150.99 192.708 1128.2 192.708V212.708ZM1173.34 226.319C1184.7 235.201 1193.34 248.036 1198.93 265.492L1217.98 259.396C1211.4 238.852 1200.74 222.351 1185.65 210.561L1173.34 226.319ZM1198.95 265.561C1204.77 283.31 1207.8 304.63 1207.8 329.704H1227.8C1227.8 303.098 1224.6 279.578 1217.95 259.327L1198.95 265.561ZM1207.8 329.704C1207.8 353.508 1204.29 374.316 1197.5 392.289L1216.21 399.359C1224.01 378.724 1227.8 355.452 1227.8 329.704H1207.8ZM1197.5 392.289C1190.77 410.091 1180.94 423.677 1168.16 433.495L1180.35 449.353C1196.45 436.979 1208.35 420.165 1216.21 399.359L1197.5 392.289ZM1168.17 433.485C1155.89 442.889 1140.57 447.84 1121.58 447.84V467.84C1144.25 467.84 1164.03 461.847 1180.33 449.363L1168.17 433.485ZM1121.58 447.84C1098.4 447.84 1080.83 439.218 1067.77 421.943L1051.82 434.001C1068.86 456.55 1092.48 467.84 1121.58 467.84V447.84ZM1049.87 426.792L1047.13 449.82L1066.99 452.18L1069.73 429.152L1049.87 426.792ZM1057.06 441H1003.71V461H1057.06V441ZM1013.71 451V113.104H993.708V451H1013.71ZM1004.76 123.048L1064.95 116.664L1062.85 96.7757L1002.65 103.16L1004.76 123.048ZM1053.9 106.72V236.68H1073.9V106.72H1053.9ZM1106.08 422.924C1124.87 422.924 1139.97 414.635 1150.44 398.841L1133.77 387.791C1126.91 398.141 1117.99 402.924 1106.08 402.924V422.924ZM1150.44 398.841C1160.77 383.251 1165.1 359.812 1165.1 330.388H1145.1C1145.1 358.724 1140.76 377.237 1133.77 387.791L1150.44 398.841ZM1165.1 330.388C1165.1 309.567 1163.25 292.268 1159.2 278.917L1140.06 284.731C1143.3 295.396 1145.1 310.473 1145.1 330.388H1165.1ZM1159.24 279.061C1155.43 265.82 1149.49 254.891 1140.47 247.919L1128.24 263.745C1132.59 267.109 1136.83 273.508 1140.02 284.587L1159.24 279.061ZM1140.66 248.076C1132.16 241.157 1121.97 237.852 1110.64 237.852V257.852C1117.86 257.852 1123.47 259.867 1128.04 263.588L1140.66 248.076ZM1110.64 237.852C1098.41 237.852 1087.34 241.615 1077.79 249.103L1090.14 264.841C1096.09 260.169 1102.8 257.852 1110.64 257.852V237.852ZM1077.72 249.163C1069.2 255.981 1061.8 264.339 1055.49 274.129L1072.31 284.959C1077.55 276.813 1083.53 270.123 1090.21 264.781L1077.72 249.163ZM1053.9 279.544V387.616H1073.9V279.544H1053.9ZM1055.48 393.016C1061.32 402.111 1068.39 409.467 1076.81 414.771L1087.47 397.853C1081.9 394.341 1076.82 389.233 1072.32 382.216L1055.48 393.016ZM1076.81 414.771C1085.53 420.271 1095.39 422.924 1106.08 422.924V402.924C1098.83 402.924 1092.73 401.169 1087.47 397.853L1076.81 414.771ZM1392.04 113.104H1402.04V103.104H1392.04V113.104ZM1401.16 403.12L1395.29 411.216L1395.34 411.25L1395.39 411.284L1401.16 403.12ZM1445.17 407.68L1447.36 417.436L1447.48 417.41L1447.59 417.381L1445.17 407.68ZM1462.49 402.208L1471.9 398.812L1468.42 389.174L1458.87 392.888L1462.49 402.208ZM1477.31 443.248L1481.79 452.192L1489.74 448.215L1486.72 439.852L1477.31 443.248ZM1449.5 453.28L1446.95 443.611L1446.87 443.632L1446.79 443.655L1449.5 453.28ZM1352.14 435.268L1344.71 441.953L1344.71 441.953L1352.14 435.268ZM1331.85 155.74H1341.85V145.74H1331.85V155.74ZM1259.57 155.74H1249.57V165.74H1259.57V155.74ZM1259.57 113.104V103.104H1249.57V113.104H1259.57ZM1382.04 113.104V380.776H1402.04V113.104H1382.04ZM1382.04 380.776C1382.04 393.105 1385.68 404.249 1395.29 411.216L1407.03 395.024C1404.48 393.175 1402.04 389.423 1402.04 380.776H1382.04ZM1395.39 411.284C1403.83 417.259 1414.44 419.732 1426.24 419.732V399.732C1417.07 399.732 1410.95 397.797 1406.94 394.956L1395.39 411.284ZM1426.24 419.732C1433.48 419.732 1440.53 418.974 1447.36 417.436L1442.97 397.924C1437.65 399.122 1432.08 399.732 1426.24 399.732V419.732ZM1447.59 417.381C1454.05 415.766 1460.23 413.818 1466.12 411.528L1458.87 392.888C1453.81 394.854 1448.44 396.554 1442.74 397.979L1447.59 417.381ZM1453.09 405.604L1467.91 446.644L1486.72 439.852L1471.9 398.812L1453.09 405.604ZM1472.84 434.304C1466.02 437.715 1457.43 440.844 1446.95 443.611L1452.05 462.949C1463.45 459.94 1473.41 456.381 1481.79 452.192L1472.84 434.304ZM1446.79 443.655C1437.08 446.389 1425.49 447.84 1411.88 447.84V467.84C1426.84 467.84 1440.33 466.251 1452.21 462.905L1446.79 443.655ZM1411.88 447.84C1387.52 447.84 1370.68 440.933 1359.58 428.583L1344.71 441.953C1360.66 459.699 1383.65 467.84 1411.88 467.84V447.84ZM1359.58 428.583C1348.1 415.814 1341.85 398.13 1341.85 374.392H1321.85C1321.85 401.726 1329.13 424.626 1344.71 441.953L1359.58 428.583ZM1341.85 374.392V155.74H1321.85V374.392H1341.85ZM1331.85 145.74H1259.57V165.74H1331.85V145.74ZM1269.57 155.74V113.104H1249.57V155.74H1269.57ZM1259.57 123.104H1392.04V103.104H1259.57V123.104ZM1711.98 218.44L1717.29 209.969L1717.29 209.969L1711.98 218.44ZM1750.05 262.9L1740.94 267.022L1740.96 267.065L1740.98 267.109L1750.05 262.9ZM1750.05 397.648L1740.97 393.467L1740.97 393.467L1750.05 397.648ZM1589.54 442.564L1584.28 451.07L1584.33 451.098L1584.37 451.125L1589.54 442.564ZM1551.24 398.56L1542.15 402.741L1542.16 402.755L1542.16 402.769L1551.24 398.56ZM1551.24 263.584L1560.32 267.765L1560.32 267.765L1551.24 263.584ZM1589.77 218.896L1595.1 227.355L1595.13 227.337L1595.16 227.32L1589.77 218.896ZM1613.02 267.916L1604.57 262.572L1604.55 262.607L1604.53 262.642L1613.02 267.916ZM1613.02 392.86L1604.53 398.134L1604.54 398.156L1604.55 398.178L1613.02 392.86ZM1688.26 392.86L1696.73 398.178L1696.75 398.156L1696.76 398.134L1688.26 392.86ZM1688.26 267.916L1679.77 273.19L1679.78 273.212L1679.79 273.234L1688.26 267.916ZM1650.87 212.708C1673.42 212.708 1691.85 217.619 1706.66 226.911L1717.29 209.969C1698.66 198.285 1676.36 192.708 1650.87 192.708V212.708ZM1706.66 226.911C1721.61 236.285 1733.03 249.539 1740.94 267.022L1759.16 258.778C1749.74 237.957 1735.79 221.571 1717.29 209.969L1706.66 226.911ZM1740.98 267.109C1749.07 284.534 1753.28 305.31 1753.28 329.704H1773.28C1773.28 303.026 1768.67 279.266 1759.12 258.691L1740.98 267.109ZM1753.28 329.704C1753.28 354.742 1749.05 375.901 1740.97 393.467L1759.14 401.829C1768.68 381.091 1773.28 356.954 1773.28 329.704H1753.28ZM1740.97 393.467C1732.91 410.979 1721.39 424.253 1706.43 433.637L1717.06 450.579C1735.54 438.987 1749.56 422.621 1759.14 401.829L1740.97 393.467ZM1706.43 433.637C1691.62 442.929 1673.19 447.84 1650.64 447.84V467.84C1676.13 467.84 1698.43 462.263 1717.06 450.579L1706.43 433.637ZM1650.64 447.84C1628.22 447.84 1609.72 443.065 1594.71 434.003L1584.37 451.125C1603.1 462.431 1625.34 467.84 1650.64 467.84V447.84ZM1594.8 434.058C1579.85 424.819 1568.36 411.699 1560.31 394.351L1542.16 402.769C1551.75 423.421 1565.79 439.637 1584.28 451.07L1594.8 434.058ZM1560.32 394.379C1552.24 376.827 1548.01 355.521 1548.01 330.16H1528.01C1528.01 357.695 1532.6 381.989 1542.15 402.741L1560.32 394.379ZM1548.01 330.16C1548.01 306.092 1552.21 285.374 1560.32 267.765L1542.15 259.403C1532.63 280.098 1528.01 303.764 1528.01 330.16H1548.01ZM1560.32 267.765C1568.37 250.267 1579.96 236.902 1595.1 227.355L1584.43 210.437C1565.83 222.17 1551.73 238.597 1542.15 259.403L1560.32 267.765ZM1595.16 227.32C1610.13 217.74 1628.55 212.708 1650.87 212.708V192.708C1625.47 192.708 1603.15 198.468 1584.38 210.472L1595.16 227.32ZM1650.87 238.08C1630.89 238.08 1614.93 246.187 1604.57 262.572L1621.48 273.26C1627.84 263.197 1637.11 258.08 1650.87 258.08V238.08ZM1604.53 262.642C1594.82 278.28 1590.71 301.332 1590.71 330.16H1610.71C1610.71 302.444 1614.81 284 1621.52 273.19L1604.53 262.642ZM1590.71 330.16C1590.71 359.268 1594.81 382.485 1604.53 398.134L1621.52 387.586C1614.82 376.787 1610.71 358.204 1610.71 330.16H1590.71ZM1604.55 398.178C1614.79 414.473 1630.71 422.468 1650.64 422.468V402.468C1636.83 402.468 1627.68 397.391 1621.49 387.542L1604.55 398.178ZM1650.64 422.468C1670.57 422.468 1686.5 414.473 1696.73 398.178L1679.79 387.542C1673.61 397.391 1664.46 402.468 1650.64 402.468V422.468ZM1696.76 398.134C1706.48 382.473 1710.58 359.091 1710.58 329.704H1690.58C1690.58 358.077 1686.46 376.798 1679.77 387.586L1696.76 398.134ZM1710.58 329.704C1710.58 301.031 1706.47 278.103 1696.73 262.598L1679.79 273.234C1686.48 283.873 1690.58 302.137 1690.58 329.704H1710.58ZM1696.76 262.642C1686.57 246.226 1670.74 238.08 1650.87 238.08V258.08C1664.44 258.08 1673.54 263.158 1679.77 273.19L1696.76 262.642ZM2032.14 175.576L2041.66 172.525L2038.03 161.199L2027.5 166.718L2032.14 175.576ZM2047.19 222.544L2050.49 231.983L2059.68 228.766L2056.71 219.493L2047.19 222.544ZM2016.41 229.384L2017.47 239.328L2017.53 239.321L2017.6 239.313L2016.41 229.384ZM1977.19 231.208V221.208L1973.22 240.385L1977.19 231.208ZM2010.71 255.604L2002.78 261.701L2002.83 261.769L2002.89 261.836L2010.71 255.604ZM2010.25 334.72L2001.88 329.245L2001.86 329.281L2001.83 329.318L2010.25 334.72ZM1976.28 363.676L1971.99 354.641L1971.97 354.649L1971.96 354.658L1976.28 363.676ZM1907.42 373.252L1906.18 383.175L1906.18 383.175L1907.42 373.252ZM1893.29 370.744L1895.56 361.006L1891.83 360.135L1888.47 361.982L1893.29 370.744ZM1888.95 399.7L1882.04 406.926L1882.2 407.08L1882.37 407.226L1888.95 399.7ZM1999.99 413.608L1995.85 422.712L1995.91 422.74L1995.98 422.767L1999.99 413.608ZM2031.45 437.776L2023.38 443.679L2023.41 443.718L2023.44 443.757L2031.45 437.776ZM2011.16 529.888L2005.73 521.494L2011.16 529.888ZM1850.65 541.516L1847.2 550.901L1847.21 550.906L1847.23 550.911L1850.65 541.516ZM1816.68 515.524L1825.35 510.55L1825.34 510.525L1825.32 510.5L1816.68 515.524ZM1806.87 474.712V464.712H1796.87V474.712H1806.87ZM1860.45 474.712H1870.45V464.712H1860.45V474.712ZM1865.01 493.864L1856.46 499.047L1856.52 499.141L1856.58 499.233L1865.01 493.864ZM1882.57 505.036L1879.82 514.651L1879.84 514.658L1879.87 514.664L1882.57 505.036ZM1957.58 504.808L1954.9 495.175L1954.88 495.181L1954.86 495.187L1957.58 504.808ZM1977.19 493.636L1969.41 487.358L1969.36 487.419L1969.31 487.48L1977.19 493.636ZM1971.95 456.7L1977.49 448.379L1977.49 448.379L1971.95 456.7ZM1847.91 435.268L1841.38 442.839L1841.41 442.864L1841.44 442.89L1847.91 435.268ZM1838.11 377.812L1829.52 372.691L1829.51 372.717L1829.49 372.742L1838.11 377.812ZM1858.17 357.748L1863.51 366.203L1878.09 356.996L1862.86 348.915L1858.17 357.748ZM1825.8 329.476L1817.18 334.551L1817.22 334.621L1817.26 334.69L1825.8 329.476ZM1829.22 243.748L1837.48 249.384L1837.48 249.384L1829.22 243.748ZM1865.93 213.652L1870.08 222.75L1870.08 222.75L1865.93 213.652ZM1919.96 202.936L1920.04 192.936L1920 192.936H1919.96V202.936ZM1967.61 199.516L1965.8 189.681L1965.79 189.683L1965.78 189.685L1967.61 199.516ZM2002.5 189.484L1998.64 180.257L1998.62 180.268L1998.59 180.278L2002.5 189.484ZM1888.27 255.604L1880.87 248.877L1880.84 248.914L1880.8 248.952L1888.27 255.604ZM1888.73 322.864L1881.39 329.663L1888.73 322.864ZM1952.79 323.32L1945.32 316.676L1945.31 316.685L1952.79 323.32ZM1952.79 254.236L1945.58 261.158L1945.61 261.196L1945.65 261.234L1952.79 254.236ZM2022.61 178.627L2037.66 225.595L2056.71 219.493L2041.66 172.525L2022.61 178.627ZM2043.88 213.105C2035.56 216.018 2026.02 218.158 2015.21 219.455L2017.6 239.313C2029.59 237.874 2040.57 235.454 2050.49 231.983L2043.88 213.105ZM2015.34 219.44C2004.38 220.61 1991.67 221.208 1977.19 221.208V241.208C1992.19 241.208 2005.63 240.59 2017.47 239.328L2015.34 219.44ZM1973.22 240.385C1986.84 246.284 1996.47 253.5 2002.78 261.701L2018.63 249.507C2009.74 237.948 1997.03 228.9 1981.16 222.031L1973.22 240.385ZM2002.89 261.836C2008.95 269.444 2012.33 279.493 2012.33 292.768H2032.33C2032.33 275.947 2027.97 261.22 2018.53 249.372L2002.89 261.836ZM2012.33 292.768C2012.33 306.61 2008.8 318.666 2001.88 329.245L2018.62 340.195C2027.81 326.15 2032.33 310.238 2032.33 292.768H2012.33ZM2001.83 329.318C1995.05 339.879 1985.25 348.354 1971.99 354.641L1980.56 372.711C1996.8 365.014 2009.64 354.185 2018.66 340.122L2001.83 329.318ZM1971.96 354.658C1959.01 360.863 1943.15 364.164 1924.07 364.164V384.164C1945.41 384.164 1964.36 380.473 1980.6 372.694L1971.96 354.658ZM1924.07 364.164C1918.14 364.164 1913.02 363.874 1908.66 363.329L1906.18 383.175C1911.55 383.846 1917.52 384.164 1924.07 384.164V364.164ZM1908.66 363.329C1904.13 362.763 1899.76 361.987 1895.56 361.006L1891.01 380.482C1895.93 381.629 1900.99 382.525 1906.18 383.175L1908.66 363.329ZM1888.47 361.982C1883.64 364.639 1879.91 368.538 1877.36 373.4L1895.08 382.68C1895.87 381.158 1896.86 380.193 1898.1 379.506L1888.47 361.982ZM1877.36 373.4C1875 377.91 1873.71 382.76 1873.71 387.844H1893.71C1893.71 386.24 1894.09 384.554 1895.08 382.68L1877.36 373.4ZM1873.71 387.844C1873.71 395.314 1876.71 401.824 1882.04 406.926L1895.87 392.474C1894.21 390.888 1893.71 389.494 1893.71 387.844H1873.71ZM1882.37 407.226C1886.07 410.466 1890.87 412.136 1895.49 413.086C1900.27 414.07 1905.9 414.488 1912.21 414.488V394.488C1906.66 394.488 1902.49 394.108 1899.52 393.496C1896.38 392.85 1895.48 392.126 1895.54 392.174L1882.37 407.226ZM1912.21 414.488H1953.25V394.488H1912.21V414.488ZM1953.25 414.488C1969.9 414.488 1984.02 417.333 1995.85 422.712L2004.13 404.504C1989.21 397.723 1972.17 394.488 1953.25 394.488V414.488ZM1995.98 422.767C2008.17 428.109 2017.14 435.146 2023.38 443.679L2039.53 431.873C2030.87 420.038 2018.87 410.963 2004 404.449L1995.98 422.767ZM2023.44 443.757C2029.7 452.14 2032.85 461.726 2032.85 472.888H2052.85C2052.85 457.602 2048.41 443.78 2039.47 431.795L2023.44 443.757ZM2032.85 472.888C2032.85 493.676 2024.13 509.579 2005.73 521.494L2016.6 538.282C2040.45 522.837 2052.85 500.74 2052.85 472.888H2032.85ZM2005.73 521.494C1986.93 533.665 1958.32 540.408 1918.59 540.408V560.408C1960.03 560.408 1993.14 553.471 2016.6 538.282L2005.73 521.494ZM1918.59 540.408C1890.05 540.408 1868.74 537.468 1854.07 532.121L1847.23 550.911C1865.08 557.42 1889.07 560.408 1918.59 560.408V540.408ZM1854.1 532.131C1839.51 526.762 1830.4 519.357 1825.35 510.55L1808 520.498C1816.02 534.491 1829.57 544.414 1847.2 550.901L1854.1 532.131ZM1825.32 510.5C1819.86 501.089 1816.87 489.305 1816.87 474.712H1796.87C1796.87 492.039 1800.43 507.463 1808.03 520.548L1825.32 510.5ZM1806.87 484.712H1860.45V464.712H1806.87V484.712ZM1850.45 474.712C1850.45 483.719 1852.22 492.042 1856.46 499.047L1873.57 488.681C1871.73 485.654 1870.45 481.209 1870.45 474.712H1850.45ZM1856.58 499.233C1861.6 507.12 1870.08 511.867 1879.82 514.651L1885.32 495.421C1878.04 493.341 1874.82 490.64 1873.45 488.495L1856.58 499.233ZM1879.87 514.664C1889.84 517.464 1903.31 518.684 1919.73 518.684V498.684C1903.94 498.684 1892.62 497.472 1885.27 495.408L1879.87 514.664ZM1919.73 518.684C1936.22 518.684 1949.9 517.38 1960.31 514.429L1954.86 495.187C1947.03 497.405 1935.47 498.684 1919.73 498.684V518.684ZM1960.27 514.441C1970.52 511.583 1979.4 507.048 1985.07 499.792L1969.31 487.48C1967.38 489.952 1963.19 492.865 1954.9 495.175L1960.27 514.441ZM1984.97 499.914C1990.29 493.322 1992.89 485.526 1992.89 476.992H1972.89C1972.89 481.226 1971.69 484.526 1969.41 487.358L1984.97 499.914ZM1992.89 476.992C1992.89 464.936 1987.53 455.071 1977.49 448.379L1966.4 465.021C1970.95 468.057 1972.89 471.72 1972.89 476.992H1992.89ZM1977.49 448.379C1967.9 441.985 1955.32 439.404 1940.94 439.404V459.404C1953.31 459.404 1961.4 461.687 1966.4 465.021L1977.49 448.379ZM1940.94 439.404H1901.04V459.404H1940.94V439.404ZM1901.04 439.404C1877.62 439.404 1862.81 434.796 1854.39 427.646L1841.44 442.89C1855.21 454.588 1875.81 459.404 1901.04 459.404V439.404ZM1854.45 427.697C1845.12 419.652 1841.27 411.244 1841.27 402.208H1821.27C1821.27 418.1 1828.51 431.732 1841.38 442.839L1854.45 427.697ZM1841.27 402.208C1841.27 395.581 1843.02 389.188 1846.73 382.882L1829.49 372.742C1824.08 381.94 1821.27 391.811 1821.27 402.208H1841.27ZM1846.7 382.933C1850.52 376.528 1856.03 370.931 1863.51 366.203L1852.83 349.293C1842.99 355.509 1835.13 363.288 1829.52 372.691L1846.7 382.933ZM1862.86 348.915C1849.06 341.593 1839.83 333.267 1834.33 324.261L1817.26 334.69C1825.14 347.573 1837.49 358.095 1853.49 366.581L1862.86 348.915ZM1834.41 324.401C1828.96 315.143 1825.99 303.604 1825.99 289.348H1805.99C1805.99 306.404 1809.56 321.617 1817.18 334.551L1834.41 324.401ZM1825.99 289.348C1825.99 273.633 1829.93 260.451 1837.48 249.384L1820.96 238.112C1810.88 252.885 1805.99 270.103 1805.99 289.348H1825.99ZM1837.48 249.384C1845.16 238.12 1855.91 229.215 1870.08 222.75L1861.77 204.554C1844.63 212.377 1830.9 223.536 1820.96 238.112L1837.48 249.384ZM1870.08 222.75C1884.21 216.299 1900.77 212.936 1919.96 212.936V192.936C1898.42 192.936 1878.95 196.717 1861.77 204.554L1870.08 222.75ZM1919.88 212.936C1938.98 213.091 1955.54 211.933 1969.44 209.347L1965.78 189.685C1953.54 191.963 1938.33 193.085 1920.04 192.936L1919.88 212.936ZM1969.42 209.351C1983.21 206.816 1995.56 203.289 2006.4 198.69L1998.59 180.278C1989.37 184.191 1978.47 187.352 1965.8 189.681L1969.42 209.351ZM2006.35 198.711C2016.8 194.346 2026.94 189.587 2036.78 184.434L2027.5 166.718C2018.18 171.597 2008.56 176.11 1998.64 180.257L2006.35 198.711ZM1921.1 233.064C1904.79 233.064 1890.84 237.908 1880.87 248.877L1895.67 262.331C1900.9 256.58 1908.83 253.064 1921.1 253.064V233.064ZM1880.8 248.952C1871.36 259.548 1867.1 273.209 1867.1 288.892H1887.1C1887.1 276.911 1890.28 268.38 1895.74 262.256L1880.8 248.952ZM1867.1 288.892C1867.1 305.035 1871.52 319.018 1881.39 329.663L1896.06 316.065C1890.43 309.99 1887.1 301.325 1887.1 288.892H1867.1ZM1881.39 329.663C1891.45 340.513 1905.24 345.404 1921.33 345.404V325.404C1909.45 325.404 1901.5 321.935 1896.06 316.065L1881.39 329.663ZM1921.33 345.404C1937.15 345.404 1950.72 340.725 1960.28 329.955L1945.31 316.685C1940.57 322.027 1933.17 325.404 1921.33 325.404V345.404ZM1960.27 329.964C1969.72 319.326 1973.74 304.915 1973.74 288.208H1953.74C1953.74 301.901 1950.46 310.898 1945.32 316.676L1960.27 329.964ZM1973.74 288.208C1973.74 271.585 1969.76 257.263 1959.94 247.238L1945.65 261.234C1950.42 266.105 1953.74 274.431 1953.74 288.208H1973.74ZM1960.01 247.314C1950.39 237.279 1936.81 233.064 1921.1 233.064V253.064C1933.36 253.064 1940.91 256.297 1945.58 261.158L1960.01 247.314ZM2248.33 138.184L2244.69 147.499L2244.71 147.505L2244.72 147.511L2248.33 138.184ZM2288.69 164.632L2281.43 171.507L2281.43 171.507L2288.69 164.632ZM2314.22 205.444L2304.92 209.112L2304.93 209.127L2304.93 209.142L2314.22 205.444ZM2327.45 257.428L2317.54 258.776L2317.54 258.814L2317.55 258.853L2327.45 257.428ZM2325.85 414.52L2335.75 415.967L2335.75 415.967L2325.85 414.52ZM2305.1 473.344L2297.14 467.3L2297.12 467.322L2297.1 467.344L2305.1 473.344ZM2238.07 487.708L2243.1 479.063L2243.1 479.063L2238.07 487.708ZM2221.66 472.66L2229.82 466.885L2229.79 466.838L2229.75 466.79L2221.66 472.66ZM2211.4 452.14L2201.83 455.067L2201.85 455.128L2201.87 455.188L2211.4 452.14ZM2207.06 429.796L2217.03 428.982L2216.28 419.796H2207.06V429.796ZM2205.24 429.796V419.796H2198.7L2196.08 425.788L2205.24 429.796ZM2192.02 450.772L2184.36 444.336L2184.35 444.344L2184.35 444.353L2192.02 450.772ZM2171.27 466.732L2166.86 457.755L2166.83 457.771L2166.8 457.788L2171.27 466.732ZM2099.9 459.208L2093.34 466.754L2093.37 466.777L2093.4 466.801L2099.9 459.208ZM2077.1 422.044L2067.52 424.901L2067.52 424.913L2067.53 424.926L2077.1 422.044ZM2093.52 279.544L2085.51 273.553L2085.5 273.572L2085.48 273.59L2093.52 279.544ZM2236.48 266.776H2246.48V260.857L2241.29 258.009L2236.48 266.776ZM2239.21 433.444L2229.51 435.869L2229.53 435.964L2229.56 436.058L2239.21 433.444ZM2247.19 448.948L2240.46 456.347L2240.64 456.507L2240.82 456.658L2247.19 448.948ZM2272.27 445.072L2263.53 440.216L2263.53 440.216L2272.27 445.072ZM2278.88 420.22L2268.96 418.996L2268.96 418.996L2278.88 420.22ZM2281.39 378.724L2291.39 378.907L2291.39 378.906L2281.39 378.724ZM2277.97 258.112L2268.06 259.402L2268.06 259.447L2268.07 259.492L2277.97 258.112ZM2264.06 210.232L2255.14 214.745L2255.16 214.786L2255.18 214.826L2264.06 210.232ZM2235.79 179.908L2230.73 188.53L2230.77 188.554L2230.81 188.577L2235.79 179.908ZM2140.26 178.312L2143.63 187.727L2143.67 187.714L2143.7 187.7L2140.26 178.312ZM2088.05 211.144L2080.44 217.629L2087.01 225.343L2094.63 218.67L2088.05 211.144ZM2061.83 180.364L2055.24 172.838L2047.82 179.337L2054.22 186.849L2061.83 180.364ZM2124.53 141.148L2128.09 150.492L2128.12 150.481L2128.15 150.469L2124.53 141.148ZM2133.19 305.992L2142.35 310.012L2142.36 309.992L2142.37 309.971L2133.19 305.992ZM2127.26 404.488L2117.38 406.032L2117.4 406.12L2117.41 406.208L2127.26 404.488ZM2135.7 426.148L2143.46 419.842L2143.46 419.842L2135.7 426.148ZM2170.81 427.516L2164.26 419.959L2164.2 420.014L2164.14 420.07L2170.81 427.516ZM2180.84 413.608L2190.13 417.322L2190.15 417.277L2190.16 417.232L2180.84 413.608ZM2185.4 398.56L2195.21 400.521L2195.4 399.55V398.56H2185.4ZM2185.4 292.084H2195.4V286.022L2190.03 283.218L2185.4 292.084ZM2175.14 288.208L2172.83 297.936L2172.88 297.948L2172.93 297.959L2175.14 288.208ZM2191.1 138.836C2212.4 138.836 2230.18 141.831 2244.69 147.499L2251.97 128.869C2234.56 122.072 2214.19 118.836 2191.1 118.836V138.836ZM2244.72 147.511C2259.59 153.261 2271.75 161.29 2281.43 171.507L2295.95 157.757C2284.04 145.174 2269.3 135.571 2251.94 128.857L2244.72 147.511ZM2281.43 171.507C2291.27 181.904 2299.12 194.395 2304.92 209.112L2323.53 201.776C2316.86 184.877 2307.69 170.16 2295.95 157.757L2281.43 171.507ZM2304.93 209.142C2310.83 223.947 2315.05 240.473 2317.54 258.776L2337.36 256.08C2334.68 236.383 2330.09 218.253 2323.51 201.746L2304.93 209.142ZM2317.55 258.853C2320.21 277.331 2321.55 297.067 2321.55 318.076H2341.55C2341.55 296.221 2340.16 275.525 2337.35 256.003L2317.55 258.853ZM2321.55 318.076C2321.55 356.094 2319.66 387.723 2315.96 413.073L2335.75 415.967C2339.64 389.333 2341.55 356.666 2341.55 318.076H2321.55ZM2315.96 413.073C2312.27 438.273 2305.72 455.985 2297.14 467.3L2313.07 479.388C2324.55 464.255 2331.83 442.751 2335.75 415.967L2315.96 413.073ZM2297.1 467.344C2289.25 477.812 2277.85 483.408 2261.33 483.408V503.408C2283.1 503.408 2300.89 495.628 2313.1 479.344L2297.1 467.344ZM2261.33 483.408C2253.79 483.408 2247.84 481.823 2243.1 479.063L2233.05 496.353C2241.37 501.193 2250.92 503.408 2261.33 503.408V483.408ZM2243.1 479.063C2237.81 475.991 2233.41 471.958 2229.82 466.885L2213.49 478.435C2218.72 485.826 2225.26 491.825 2233.05 496.353L2243.1 479.063ZM2229.75 466.79C2226 461.622 2223.05 455.745 2220.92 449.092L2201.87 455.188C2204.61 463.735 2208.49 471.538 2213.56 478.53L2229.75 466.79ZM2220.96 449.213C2218.88 442.424 2217.58 435.684 2217.03 428.982L2197.1 430.61C2197.77 438.804 2199.35 446.96 2201.83 455.067L2220.96 449.213ZM2207.06 419.796H2205.24V439.796H2207.06V419.796ZM2196.08 425.788C2193.31 432.126 2189.43 438.31 2184.36 444.336L2199.67 457.208C2205.85 449.858 2210.79 442.058 2214.4 433.804L2196.08 425.788ZM2184.35 444.353C2179.85 449.722 2174.08 454.209 2166.86 457.755L2175.67 475.709C2185.17 471.047 2193.23 464.894 2199.68 457.191L2184.35 444.353ZM2166.8 457.788C2160.27 461.05 2152.07 462.888 2141.86 462.888V482.888C2154.44 482.888 2165.85 480.622 2175.74 475.676L2166.8 457.788ZM2141.86 462.888C2126.33 462.888 2114.84 458.839 2106.41 451.615L2093.4 466.801C2106.25 477.817 2122.73 482.888 2141.86 482.888V462.888ZM2106.47 451.662C2097.64 443.986 2090.94 433.334 2086.68 419.162L2067.53 424.926C2072.69 442.066 2081.19 456.19 2093.34 466.754L2106.47 451.662ZM2086.69 419.187C2082.3 404.468 2080.04 387.67 2080.04 368.692H2060.04C2060.04 389.234 2062.48 408.004 2067.52 424.901L2086.69 419.187ZM2080.04 368.692C2080.04 331.592 2087.64 304.276 2101.55 285.498L2085.48 273.59C2068.09 297.068 2060.04 329.184 2060.04 368.692H2080.04ZM2101.53 285.535C2115.08 267.418 2135.38 257.852 2164.2 257.852V237.852C2130.4 237.852 2103.57 249.414 2085.51 273.553L2101.53 285.535ZM2164.2 257.852C2175.07 257.852 2186.14 259.193 2197.43 261.907L2202.11 242.461C2189.37 239.399 2176.73 237.852 2164.2 237.852V257.852ZM2197.43 261.907C2208.46 264.559 2219.86 269.067 2231.66 275.543L2241.29 258.009C2228.16 250.805 2215.1 245.585 2202.11 242.461L2197.43 261.907ZM2226.48 266.776V402.892H2246.48V266.776H2226.48ZM2226.48 402.892C2226.48 416.276 2227.39 427.406 2229.51 435.869L2248.91 431.019C2247.38 424.89 2246.48 415.652 2246.48 402.892H2226.48ZM2229.56 436.058C2231.73 444.089 2235.05 451.425 2240.46 456.347L2253.92 441.549C2252.64 440.391 2250.64 437.391 2248.86 430.83L2229.56 436.058ZM2240.82 456.658C2246.25 461.138 2252.72 463.28 2259.73 463.28V443.28C2257.01 443.28 2255.13 442.534 2253.56 441.238L2240.82 456.658ZM2259.73 463.28C2269.39 463.28 2276.58 457.904 2281.01 449.928L2263.53 440.216C2261.88 443.184 2260.71 443.28 2259.73 443.28V463.28ZM2281.01 449.928C2284.99 442.774 2287.39 432.972 2288.81 421.444L2268.96 418.996C2267.64 429.66 2265.64 436.426 2263.53 440.216L2281.01 449.928ZM2288.81 421.444C2290.23 409.881 2291.08 395.675 2291.39 378.907L2271.39 378.541C2271.09 394.909 2270.27 408.367 2268.96 418.996L2288.81 421.444ZM2291.39 378.906C2291.7 362.11 2291.85 342.667 2291.85 320.584H2271.85C2271.85 342.581 2271.7 361.898 2271.39 378.542L2291.39 378.906ZM2291.85 320.584C2291.85 297.12 2290.54 275.824 2287.88 256.732L2268.07 259.492C2270.57 277.488 2271.85 297.84 2271.85 320.584H2291.85ZM2287.89 256.822C2285.34 237.266 2280.44 220.128 2272.95 205.638L2255.18 214.826C2261.37 226.784 2265.73 241.566 2268.06 259.402L2287.89 256.822ZM2272.99 205.719C2265.47 190.859 2254.72 179.259 2240.78 171.239L2230.81 188.577C2241.18 194.541 2249.28 203.157 2255.14 214.745L2272.99 205.719ZM2240.86 171.286C2226.71 162.973 2209.14 159.192 2188.82 159.192V179.192C2206.81 179.192 2220.56 182.555 2230.73 188.53L2240.86 171.286ZM2188.82 159.192C2171.71 159.192 2154.36 162.486 2136.81 168.924L2143.7 187.7C2159.3 181.978 2174.32 179.192 2188.82 179.192V159.192ZM2136.89 168.897C2118.79 175.374 2100.31 187.123 2081.46 203.618L2094.63 218.67C2112.26 203.245 2128.6 193.106 2143.63 187.727L2136.89 168.897ZM2095.66 204.659L2069.44 173.879L2054.22 186.849L2080.44 217.629L2095.66 204.659ZM2068.41 187.89C2088.38 170.42 2108.28 158.046 2128.09 150.492L2120.96 131.804C2098.52 140.362 2076.62 154.132 2055.24 172.838L2068.41 187.89ZM2128.15 150.469C2148.09 142.722 2169.05 138.836 2191.1 138.836V118.836C2166.64 118.836 2143.22 123.158 2120.91 131.827L2128.15 150.469ZM2163.97 277.068C2155.06 277.068 2146.81 278.943 2139.75 283.28C2132.64 287.656 2127.45 294.1 2124.02 302.013L2142.37 309.971C2144.41 305.268 2147.08 302.25 2150.23 300.318C2153.43 298.347 2157.84 297.068 2163.97 297.068V277.068ZM2124.04 301.972C2117.66 316.484 2114.98 339.206 2114.98 368.692H2134.98C2134.98 339.506 2137.78 320.428 2142.35 310.012L2124.04 301.972ZM2114.98 368.692C2114.98 383.143 2115.76 395.626 2117.38 406.032L2137.14 402.944C2135.73 393.894 2134.98 382.513 2134.98 368.692H2114.98ZM2117.41 406.208C2119.23 416.621 2122.47 425.729 2127.94 432.454L2143.46 419.842C2141.02 416.839 2138.64 411.507 2137.11 402.768L2117.41 406.208ZM2127.94 432.454C2133.98 439.888 2142.35 443.444 2151.89 443.444V423.444C2147.74 423.444 2145.32 422.136 2143.46 419.842L2127.94 432.454ZM2151.89 443.444C2161.61 443.444 2170.64 441.1 2177.49 434.962L2164.14 420.07C2162.17 421.836 2158.59 423.444 2151.89 423.444V443.444ZM2177.36 435.073C2183.06 430.134 2187.38 424.202 2190.13 417.322L2171.56 409.894C2170.05 413.654 2167.68 416.994 2164.26 419.959L2177.36 435.073ZM2190.16 417.232C2192.45 411.354 2194.16 405.773 2195.21 400.521L2175.6 396.599C2174.82 400.467 2173.49 404.918 2171.52 409.984L2190.16 417.232ZM2195.4 398.56V292.084H2175.4V398.56H2195.4ZM2190.03 283.218C2185.88 281.055 2181.66 279.433 2177.36 278.457L2172.93 297.959C2175.32 298.503 2177.93 299.465 2180.78 300.95L2190.03 283.218ZM2177.46 278.48C2173.32 277.495 2168.79 277.068 2163.97 277.068V297.068C2167.66 297.068 2170.58 297.401 2172.83 297.936L2177.46 278.48ZM2566.9 451V461H2575.48L2576.78 452.512L2566.9 451ZM2496.22 451L2486.32 452.441L2487.57 461H2496.22V451ZM2471.82 283.42L2481.72 281.979L2461.94 281.887L2471.82 283.42ZM2445.83 451V461H2454.4L2455.71 452.533L2445.83 451ZM2376.52 451L2366.64 452.576L2367.99 461H2376.52V451ZM2337.99 209.548V199.548H2326.26L2328.11 211.124L2337.99 209.548ZM2394.53 209.548L2404.48 208.525L2403.55 199.548H2394.53V209.548ZM2415.51 413.608L2405.56 414.631L2425.36 415.304L2415.51 413.608ZM2445.37 240.1V230.1H2436.95L2435.52 238.404L2445.37 240.1ZM2500.78 240.1L2510.66 238.542L2509.32 230.1H2500.78V240.1ZM2528.14 413.608L2518.26 415.166L2538.08 414.653L2528.14 413.608ZM2549.57 209.548V199.548H2540.56L2539.62 208.503L2549.57 209.548ZM2603.83 209.548L2613.72 211.06L2615.48 199.548H2603.83V209.548ZM2566.9 441H2496.22V461H2566.9V441ZM2506.11 449.559L2481.72 281.979L2461.93 284.861L2486.32 452.441L2506.11 449.559ZM2461.94 281.887L2435.95 449.467L2455.71 452.533L2481.7 284.953L2461.94 281.887ZM2445.83 441H2376.52V461H2445.83V441ZM2386.39 449.424L2347.86 207.972L2328.11 211.124L2366.64 452.576L2386.39 449.424ZM2337.99 219.548H2394.53V199.548H2337.99V219.548ZM2384.58 210.571L2405.56 414.631L2425.45 412.585L2404.48 208.525L2384.58 210.571ZM2425.36 415.304L2455.23 241.796L2435.52 238.404L2405.65 411.912L2425.36 415.304ZM2445.37 250.1H2500.78V230.1H2445.37V250.1ZM2490.9 241.658L2518.26 415.166L2538.02 412.05L2510.66 238.542L2490.9 241.658ZM2538.08 414.653L2559.51 210.593L2539.62 208.503L2518.19 412.563L2538.08 414.653ZM2549.57 219.548H2603.83V199.548H2549.57V219.548ZM2593.95 208.036L2557.01 449.488L2576.78 452.512L2613.72 211.06L2593.95 208.036ZM2646.52 451H2636.52V461H2646.52V451ZM2646.52 409.276V399.276H2636.52V409.276H2646.52ZM2680.49 409.276V419.276H2690.49V409.276H2680.49ZM2680.49 251.044H2690.49V241.044H2680.49V251.044ZM2646.52 251.044H2636.52V261.044H2646.52V251.044ZM2646.52 209.548V199.548H2636.52V209.548H2646.52ZM2726.32 209.548L2736.12 207.571L2734.5 199.548H2726.32V209.548ZM2737.49 264.952L2727.69 266.929L2734.03 298.353L2746.68 268.899L2737.49 264.952ZM2770.78 218.668L2776.89 226.581L2776.92 226.559L2776.95 226.537L2770.78 218.668ZM2841.69 204.76L2839.68 214.556L2839.7 214.561L2839.73 214.566L2841.69 204.76ZM2859.02 209.548L2868.44 212.901L2871.77 203.523L2862.41 200.142L2859.02 209.548ZM2841 260.164L2838.5 269.847L2847.36 272.132L2850.42 263.517L2841 260.164ZM2827.55 257.428L2825.79 267.272L2825.96 267.303L2826.14 267.327L2827.55 257.428ZM2769.41 275.896L2762.17 268.995L2762.17 268.997L2769.41 275.896ZM2740.68 328.564L2731.13 325.619L2730.68 327.058V328.564H2740.68ZM2740.68 409.276H2730.68V419.276H2740.68V409.276ZM2788.79 409.276H2798.79V399.276H2788.79V409.276ZM2788.79 451V461H2798.79V451H2788.79ZM2808.17 303.712H2798.17V313.712H2808.17V303.712ZM2808.17 239.644L2798.52 237.013L2798.17 238.305V239.644H2808.17ZM2816.38 209.548V199.548H2808.74L2806.73 206.917L2816.38 209.548ZM2859.02 209.548L2868.95 210.679L2870.22 199.548H2859.02V209.548ZM2848.3 303.712V313.712H2857.23L2858.24 304.843L2848.3 303.712ZM2656.52 451V409.276H2636.52V451H2656.52ZM2646.52 419.276H2680.49V399.276H2646.52V419.276ZM2690.49 409.276V251.044H2670.49V409.276H2690.49ZM2680.49 241.044H2646.52V261.044H2680.49V241.044ZM2656.52 251.044V209.548H2636.52V251.044H2656.52ZM2646.52 219.548H2726.32V199.548H2646.52V219.548ZM2716.52 211.525L2727.69 266.929L2747.29 262.975L2736.12 207.571L2716.52 211.525ZM2746.68 268.899C2755.03 249.456 2765.23 235.597 2776.89 226.581L2764.66 210.755C2749.58 222.411 2737.58 239.408 2728.3 261.005L2746.68 268.899ZM2776.95 226.537C2788.25 217.678 2802.75 212.936 2821.17 212.936V192.936C2799.15 192.936 2780.06 198.682 2764.61 210.799L2776.95 226.537ZM2821.17 212.936C2828.42 212.936 2834.57 213.507 2839.68 214.556L2843.7 194.964C2836.95 193.581 2829.42 192.936 2821.17 192.936V212.936ZM2839.73 214.566C2845.35 215.691 2850.64 217.157 2855.62 218.954L2862.41 200.142C2856.44 197.987 2850.18 196.261 2843.65 194.954L2839.73 214.566ZM2849.59 206.195L2831.58 256.811L2850.42 263.517L2868.44 212.901L2849.59 206.195ZM2843.5 250.481C2838.48 249.185 2833.63 248.195 2828.97 247.528L2826.14 267.327C2829.98 267.877 2834.1 268.711 2838.5 269.847L2843.5 250.481ZM2829.31 247.584C2824.36 246.7 2818.97 246.288 2813.19 246.288V266.288C2818.05 266.288 2822.23 266.636 2825.79 267.272L2829.31 247.584ZM2813.19 246.288C2793.5 246.288 2776.36 254.121 2762.17 268.995L2776.65 282.797C2787.39 271.527 2799.44 266.288 2813.19 266.288V246.288ZM2762.17 268.997C2748.52 283.323 2738.29 302.377 2731.13 325.619L2750.24 331.509C2756.76 310.367 2765.68 294.309 2776.65 282.795L2762.17 268.997ZM2730.68 328.564V409.276H2750.68V328.564H2730.68ZM2740.68 419.276H2788.79V399.276H2740.68V419.276ZM2778.79 409.276V451H2798.79V409.276H2778.79ZM2788.79 441H2646.52V461H2788.79V441ZM2818.17 303.712V239.644H2798.17V303.712H2818.17ZM2817.82 242.275L2826.03 212.179L2806.73 206.917L2798.52 237.013L2817.82 242.275ZM2816.38 219.548H2859.02V199.548H2816.38V219.548ZM2849.08 208.417L2838.36 302.581L2858.24 304.843L2868.95 210.679L2849.08 208.417ZM2848.3 293.712H2808.17V313.712H2848.3V293.712ZM3079.09 218.44L3084.4 209.969L3084.4 209.969L3079.09 218.44ZM3117.16 262.9L3108.05 267.022L3108.07 267.065L3108.09 267.109L3117.16 262.9ZM3117.16 397.648L3108.08 393.467L3108.08 393.467L3117.16 397.648ZM2956.65 442.564L2951.39 451.07L2951.44 451.098L2951.48 451.125L2956.65 442.564ZM2918.35 398.56L2909.26 402.741L2909.27 402.755L2909.27 402.769L2918.35 398.56ZM2918.35 263.584L2927.43 267.765L2927.43 267.765L2918.35 263.584ZM2956.88 218.896L2962.21 227.355L2962.24 227.337L2962.27 227.32L2956.88 218.896ZM2980.13 267.916L2971.68 262.572L2971.66 262.607L2971.64 262.642L2980.13 267.916ZM2980.13 392.86L2971.64 398.134L2971.65 398.156L2971.66 398.178L2980.13 392.86ZM3055.37 392.86L3063.84 398.178L3063.86 398.156L3063.87 398.134L3055.37 392.86ZM3055.37 267.916L3046.88 273.19L3046.89 273.212L3046.9 273.234L3055.37 267.916ZM3017.98 212.708C3040.53 212.708 3058.96 217.619 3073.77 226.911L3084.4 209.969C3065.77 198.285 3043.47 192.708 3017.98 192.708V212.708ZM3073.77 226.911C3088.72 236.285 3100.14 249.539 3108.05 267.022L3126.27 258.778C3116.85 237.957 3102.9 221.571 3084.4 209.969L3073.77 226.911ZM3108.09 267.109C3116.18 284.534 3120.39 305.31 3120.39 329.704H3140.39C3140.39 303.026 3135.78 279.266 3126.23 258.691L3108.09 267.109ZM3120.39 329.704C3120.39 354.742 3116.16 375.901 3108.08 393.467L3126.24 401.829C3135.79 381.091 3140.39 356.954 3140.39 329.704H3120.39ZM3108.08 393.467C3100.02 410.979 3088.5 424.253 3073.54 433.637L3084.17 450.579C3102.65 438.987 3116.67 422.621 3126.24 401.829L3108.08 393.467ZM3073.54 433.637C3058.73 442.929 3040.3 447.84 3017.75 447.84V467.84C3043.24 467.84 3065.54 462.263 3084.17 450.579L3073.54 433.637ZM3017.75 447.84C2995.33 447.84 2976.83 443.065 2961.82 434.003L2951.48 451.125C2970.21 462.431 2992.45 467.84 3017.75 467.84V447.84ZM2961.91 434.058C2946.96 424.819 2935.47 411.699 2927.42 394.351L2909.27 402.769C2918.86 423.421 2932.9 439.637 2951.39 451.07L2961.91 434.058ZM2927.43 394.379C2919.35 376.827 2915.12 355.521 2915.12 330.16H2895.12C2895.12 357.695 2899.71 381.989 2909.26 402.741L2927.43 394.379ZM2915.12 330.16C2915.12 306.092 2919.32 285.374 2927.43 267.765L2909.26 259.403C2899.73 280.098 2895.12 303.764 2895.12 330.16H2915.12ZM2927.43 267.765C2935.48 250.267 2947.07 236.902 2962.21 227.355L2951.54 210.437C2932.94 222.17 2918.84 238.597 2909.26 259.403L2927.43 267.765ZM2962.27 227.32C2977.24 217.74 2995.66 212.708 3017.98 212.708V192.708C2992.58 192.708 2970.26 198.468 2951.49 210.472L2962.27 227.32ZM3017.98 238.08C2998 238.08 2982.04 246.187 2971.68 262.572L2988.59 273.26C2994.95 263.197 3004.22 258.08 3017.98 258.08V238.08ZM2971.64 262.642C2961.93 278.28 2957.82 301.332 2957.82 330.16H2977.82C2977.82 302.444 2981.92 284 2988.63 273.19L2971.64 262.642ZM2957.82 330.16C2957.82 359.268 2961.92 382.485 2971.64 398.134L2988.63 387.586C2981.93 376.787 2977.82 358.204 2977.82 330.16H2957.82ZM2971.66 398.178C2981.9 414.473 2997.82 422.468 3017.75 422.468V402.468C3003.94 402.468 2994.79 397.391 2988.6 387.542L2971.66 398.178ZM3017.75 422.468C3037.68 422.468 3053.61 414.473 3063.84 398.178L3046.9 387.542C3040.72 397.391 3031.57 402.468 3017.75 402.468V422.468ZM3063.87 398.134C3073.59 382.473 3077.69 359.091 3077.69 329.704H3057.69C3057.69 358.077 3053.57 376.798 3046.88 387.586L3063.87 398.134ZM3077.69 329.704C3077.69 301.031 3073.58 278.103 3063.84 262.598L3046.9 273.234C3053.58 283.873 3057.69 302.137 3057.69 329.704H3077.69ZM3063.87 262.642C3053.68 246.226 3037.85 238.08 3017.98 238.08V258.08C3031.55 258.08 3040.65 263.158 3046.88 273.19L3063.87 262.642ZM3191.08 451H3181.08V461H3191.08V451ZM3191.08 209.548V199.548H3181.08V209.548H3191.08ZM3243.52 209.548L3253.42 208.113L3252.18 199.548H3243.52V209.548ZM3247.86 239.416L3237.96 240.851L3241.14 262.761L3255.47 245.892L3247.86 239.416ZM3282.74 212.056L3287 221.104L3287.04 221.084L3287.08 221.063L3282.74 212.056ZM3374.17 221.632L3366.75 228.336L3366.77 228.359L3366.79 228.381L3374.17 221.632ZM3391.27 451V461H3401.27V451H3391.27ZM3331.08 451H3321.08V461H3331.08V451ZM3328.8 268.6L3319 270.6L3319 270.62L3319.01 270.64L3328.8 268.6ZM3320.13 252.64L3313.95 260.503L3314.04 260.573L3314.13 260.64L3320.13 252.64ZM3282.74 251.956L3278.45 242.923L3278.4 242.944L3278.36 242.966L3282.74 251.956ZM3265.87 263.584L3259.12 256.204L3259.07 256.252L3259.01 256.302L3265.87 263.584ZM3251.28 279.772L3243.35 273.675L3241.28 276.371V279.772H3251.28ZM3251.28 451V461H3261.28V451H3251.28ZM3201.08 451V209.548H3181.08V451H3201.08ZM3191.08 219.548H3243.52V199.548H3191.08V219.548ZM3233.63 210.983L3237.96 240.851L3257.75 237.981L3253.42 208.113L3233.63 210.983ZM3255.47 245.892C3265 234.691 3275.51 226.509 3287 221.104L3278.48 203.008C3264.13 209.763 3251.39 219.821 3240.24 232.94L3255.47 245.892ZM3287.08 221.063C3298.6 215.51 3311.01 212.708 3324.46 212.708V192.708C3308.12 192.708 3292.72 196.138 3278.39 203.049L3287.08 221.063ZM3324.46 212.708C3344.21 212.708 3357.74 218.369 3366.75 228.336L3381.59 214.928C3367.79 199.663 3348.19 192.708 3324.46 192.708V212.708ZM3366.79 228.381C3376 238.449 3381.27 253.284 3381.27 274.3H3401.27C3401.27 250.02 3395.14 229.743 3381.55 214.883L3366.79 228.381ZM3381.27 274.3V451H3401.27V274.3H3381.27ZM3391.27 441H3331.08V461H3391.27V441ZM3341.08 451V297.784H3321.08V451H3341.08ZM3341.08 297.784C3341.08 285.31 3340.3 274.813 3338.58 266.56L3319.01 270.64C3320.33 276.979 3321.08 285.938 3321.08 297.784H3341.08ZM3338.59 266.6C3336.79 257.773 3333.04 249.822 3326.13 244.64L3314.13 260.64C3315.73 261.842 3317.76 264.531 3319 270.6L3338.59 266.6ZM3326.31 244.777C3319.61 239.516 3310.91 237.624 3301.66 237.624V257.624C3308.53 257.624 3312.14 259.076 3313.95 260.503L3326.31 244.777ZM3301.66 237.624C3293.6 237.624 3285.83 239.418 3278.45 242.923L3287.03 260.989C3291.81 258.718 3296.66 257.624 3301.66 257.624V237.624ZM3278.36 242.966C3271.49 246.311 3265.08 250.752 3259.12 256.204L3272.61 270.964C3277.29 266.688 3282.13 263.377 3287.12 260.946L3278.36 242.966ZM3259.01 256.302C3253.44 261.551 3248.22 267.347 3243.35 273.675L3259.2 285.869C3263.45 280.341 3267.96 275.345 3272.72 270.866L3259.01 256.302ZM3241.28 279.772V451H3261.28V279.772H3241.28ZM3251.28 441H3191.08V461H3251.28V441ZM3672.67 175.576L3682.19 172.525L3678.56 161.199L3668.03 166.718L3672.67 175.576ZM3687.72 222.544L3691.02 231.983L3700.21 228.766L3697.24 219.493L3687.72 222.544ZM3656.94 229.384L3658 239.328L3658.06 239.321L3658.13 239.313L3656.94 229.384ZM3617.72 231.208V221.208L3613.75 240.385L3617.72 231.208ZM3651.24 255.604L3643.31 261.701L3643.36 261.769L3643.42 261.836L3651.24 255.604ZM3650.78 334.72L3642.41 329.245L3642.39 329.281L3642.37 329.318L3650.78 334.72ZM3616.81 363.676L3612.52 354.641L3612.51 354.649L3612.49 354.658L3616.81 363.676ZM3547.95 373.252L3546.71 383.175L3546.71 383.175L3547.95 373.252ZM3533.82 370.744L3536.09 361.006L3532.36 360.135L3529 361.982L3533.82 370.744ZM3529.48 399.7L3522.57 406.926L3522.73 407.08L3522.9 407.226L3529.48 399.7ZM3640.52 413.608L3636.38 422.712L3636.44 422.74L3636.51 422.767L3640.52 413.608ZM3671.98 437.776L3663.91 443.679L3663.94 443.718L3663.97 443.757L3671.98 437.776ZM3651.69 529.888L3646.26 521.494L3651.69 529.888ZM3491.18 541.516L3487.73 550.901L3487.74 550.906L3487.76 550.911L3491.18 541.516ZM3457.21 515.524L3465.88 510.55L3465.87 510.525L3465.86 510.5L3457.21 515.524ZM3447.4 474.712V464.712H3437.4V474.712H3447.4ZM3500.98 474.712H3510.98V464.712H3500.98V474.712ZM3505.54 493.864L3496.99 499.047L3497.05 499.141L3497.11 499.233L3505.54 493.864ZM3523.1 505.036L3520.35 514.651L3520.38 514.658L3520.4 514.664L3523.1 505.036ZM3598.11 504.808L3595.43 495.175L3595.41 495.181L3595.39 495.187L3598.11 504.808ZM3617.72 493.636L3609.94 487.358L3609.89 487.419L3609.84 487.48L3617.72 493.636ZM3612.48 456.7L3618.02 448.379L3618.02 448.379L3612.48 456.7ZM3488.44 435.268L3481.91 442.839L3481.94 442.864L3481.97 442.89L3488.44 435.268ZM3478.64 377.812L3470.05 372.691L3470.04 372.717L3470.02 372.742L3478.64 377.812ZM3498.7 357.748L3504.04 366.203L3518.62 356.996L3503.39 348.915L3498.7 357.748ZM3466.33 329.476L3457.71 334.551L3457.75 334.621L3457.8 334.69L3466.33 329.476ZM3469.75 243.748L3478.01 249.384L3478.01 249.384L3469.75 243.748ZM3506.46 213.652L3510.61 222.75L3510.61 222.75L3506.46 213.652ZM3560.49 202.936L3560.57 192.936L3560.53 192.936H3560.49V202.936ZM3608.14 199.516L3606.34 189.681L3606.33 189.683L3606.32 189.685L3608.14 199.516ZM3643.03 189.484L3639.17 180.257L3639.15 180.268L3639.12 180.278L3643.03 189.484ZM3528.8 255.604L3521.4 248.877L3521.37 248.914L3521.33 248.952L3528.8 255.604ZM3529.26 322.864L3521.92 329.663L3529.26 322.864ZM3593.32 323.32L3585.85 316.676L3585.84 316.685L3593.32 323.32ZM3593.32 254.236L3586.11 261.158L3586.14 261.196L3586.18 261.234L3593.32 254.236ZM3663.15 178.627L3678.19 225.595L3697.24 219.493L3682.19 172.525L3663.15 178.627ZM3684.41 213.105C3676.09 216.018 3666.56 218.158 3655.75 219.455L3658.13 239.313C3670.12 237.874 3681.1 235.454 3691.02 231.983L3684.41 213.105ZM3655.88 219.44C3644.91 220.61 3632.2 221.208 3617.72 221.208V241.208C3632.72 241.208 3646.16 240.59 3658 239.328L3655.88 219.44ZM3613.75 240.385C3627.37 246.284 3637 253.5 3643.31 261.701L3659.16 249.507C3650.27 237.948 3637.56 228.9 3621.69 222.031L3613.75 240.385ZM3643.42 261.836C3649.48 269.444 3652.86 279.493 3652.86 292.768H3672.86C3672.86 275.947 3668.5 261.22 3659.06 249.372L3643.42 261.836ZM3652.86 292.768C3652.86 306.61 3649.33 318.666 3642.41 329.245L3659.15 340.195C3668.34 326.15 3672.86 310.238 3672.86 292.768H3652.86ZM3642.37 329.318C3635.59 339.879 3625.78 348.354 3612.52 354.641L3621.09 372.711C3637.33 365.014 3650.17 354.185 3659.2 340.122L3642.37 329.318ZM3612.49 354.658C3599.54 360.863 3583.68 364.164 3564.6 364.164V384.164C3585.95 384.164 3604.9 380.473 3621.13 372.694L3612.49 354.658ZM3564.6 364.164C3558.67 364.164 3553.55 363.874 3549.19 363.329L3546.71 383.175C3552.08 383.846 3558.06 384.164 3564.6 384.164V364.164ZM3549.19 363.329C3544.66 362.763 3540.29 361.987 3536.09 361.006L3531.54 380.482C3536.46 381.629 3541.52 382.525 3546.71 383.175L3549.19 363.329ZM3529 361.982C3524.17 364.639 3520.44 368.538 3517.89 373.4L3535.61 382.68C3536.4 381.158 3537.39 380.193 3538.64 379.506L3529 361.982ZM3517.89 373.4C3515.53 377.91 3514.24 382.76 3514.24 387.844H3534.24C3534.24 386.24 3534.63 384.554 3535.61 382.68L3517.89 373.4ZM3514.24 387.844C3514.24 395.314 3517.24 401.824 3522.57 406.926L3536.4 392.474C3534.74 390.888 3534.24 389.494 3534.24 387.844H3514.24ZM3522.9 407.226C3526.6 410.466 3531.41 412.136 3536.02 413.086C3540.8 414.07 3546.43 414.488 3552.74 414.488V394.488C3547.19 394.488 3543.02 394.108 3540.05 393.496C3536.91 392.85 3536.02 392.126 3536.07 392.174L3522.9 407.226ZM3552.74 414.488H3593.78V394.488H3552.74V414.488ZM3593.78 414.488C3610.43 414.488 3624.55 417.333 3636.38 422.712L3644.66 404.504C3629.74 397.723 3612.7 394.488 3593.78 394.488V414.488ZM3636.51 422.767C3648.7 428.109 3657.67 435.146 3663.91 443.679L3680.06 431.873C3671.4 420.038 3659.4 410.963 3644.53 404.449L3636.51 422.767ZM3663.97 443.757C3670.23 452.14 3673.38 461.726 3673.38 472.888H3693.38C3693.38 457.602 3688.94 443.78 3680 431.795L3663.97 443.757ZM3673.38 472.888C3673.38 493.676 3664.66 509.579 3646.26 521.494L3657.13 538.282C3680.98 522.837 3693.38 500.74 3693.38 472.888H3673.38ZM3646.26 521.494C3627.46 533.665 3598.85 540.408 3559.12 540.408V560.408C3600.56 560.408 3633.67 553.471 3657.13 538.282L3646.26 521.494ZM3559.12 540.408C3530.58 540.408 3509.28 537.468 3494.61 532.121L3487.76 550.911C3505.61 557.42 3529.61 560.408 3559.12 560.408V540.408ZM3494.63 532.131C3480.04 526.762 3470.93 519.357 3465.88 510.55L3448.53 520.498C3456.56 534.491 3470.1 544.414 3487.73 550.901L3494.63 532.131ZM3465.86 510.5C3460.39 501.089 3457.4 489.305 3457.4 474.712H3437.4C3437.4 492.039 3440.96 507.463 3448.56 520.548L3465.86 510.5ZM3447.4 484.712H3500.98V464.712H3447.4V484.712ZM3490.98 474.712C3490.98 483.719 3492.75 492.042 3496.99 499.047L3514.1 488.681C3512.26 485.654 3510.98 481.209 3510.98 474.712H3490.98ZM3497.11 499.233C3502.13 507.12 3510.61 511.867 3520.35 514.651L3525.85 495.421C3518.57 493.341 3515.35 490.64 3513.98 488.495L3497.11 499.233ZM3520.4 514.664C3530.38 517.464 3543.84 518.684 3560.26 518.684V498.684C3544.47 498.684 3533.15 497.472 3525.8 495.408L3520.4 514.664ZM3560.26 518.684C3576.75 518.684 3590.43 517.38 3600.84 514.429L3595.39 495.187C3587.56 497.405 3576 498.684 3560.26 498.684V518.684ZM3600.8 514.441C3611.05 511.583 3619.93 507.048 3625.6 499.792L3609.84 487.48C3607.91 489.952 3603.72 492.865 3595.43 495.175L3600.8 514.441ZM3625.51 499.914C3630.82 493.322 3633.42 485.526 3633.42 476.992H3613.42C3613.42 481.226 3612.22 484.526 3609.94 487.358L3625.51 499.914ZM3633.42 476.992C3633.42 464.936 3628.06 455.071 3618.02 448.379L3606.93 465.021C3611.48 468.057 3613.42 471.72 3613.42 476.992H3633.42ZM3618.02 448.379C3608.43 441.985 3595.85 439.404 3581.47 439.404V459.404C3593.84 459.404 3601.93 461.687 3606.93 465.021L3618.02 448.379ZM3581.47 439.404H3541.57V459.404H3581.47V439.404ZM3541.57 439.404C3518.15 439.404 3503.34 434.796 3494.92 427.646L3481.97 442.89C3495.74 454.588 3516.35 459.404 3541.57 459.404V439.404ZM3494.98 427.697C3485.66 419.652 3481.8 411.244 3481.8 402.208H3461.8C3461.8 418.1 3469.04 431.732 3481.91 442.839L3494.98 427.697ZM3481.8 402.208C3481.8 395.581 3483.55 389.188 3487.26 382.882L3470.02 372.742C3464.61 381.94 3461.8 391.811 3461.8 402.208H3481.8ZM3487.23 382.933C3491.05 376.528 3496.56 370.931 3504.04 366.203L3493.36 349.293C3483.52 355.509 3475.66 363.288 3470.05 372.691L3487.23 382.933ZM3503.39 348.915C3489.59 341.593 3480.37 333.267 3474.86 324.261L3457.8 334.69C3465.67 347.573 3478.02 358.095 3494.02 366.581L3503.39 348.915ZM3474.95 324.401C3469.49 315.143 3466.52 303.604 3466.52 289.348H3446.52C3446.52 306.404 3450.09 321.617 3457.71 334.551L3474.95 324.401ZM3466.52 289.348C3466.52 273.633 3470.46 260.451 3478.01 249.384L3461.49 238.112C3451.41 252.885 3446.52 270.103 3446.52 289.348H3466.52ZM3478.01 249.384C3485.7 238.12 3496.44 229.215 3510.61 222.75L3502.31 204.554C3485.16 212.377 3471.43 223.536 3461.49 238.112L3478.01 249.384ZM3510.61 222.75C3524.74 216.299 3541.3 212.936 3560.49 212.936V192.936C3538.95 192.936 3519.48 196.717 3502.31 204.554L3510.61 222.75ZM3560.41 212.936C3579.51 213.091 3596.08 211.933 3609.97 209.347L3606.32 189.685C3594.07 191.963 3578.87 193.085 3560.57 192.936L3560.41 212.936ZM3609.95 209.351C3623.74 206.816 3636.09 203.289 3646.93 198.69L3639.12 180.278C3629.9 184.191 3619 187.352 3606.34 189.681L3609.95 209.351ZM3646.88 198.711C3657.33 194.346 3667.47 189.587 3677.31 184.434L3668.03 166.718C3658.71 171.597 3649.1 176.11 3639.17 180.257L3646.88 198.711ZM3561.63 233.064C3545.32 233.064 3531.37 237.908 3521.4 248.877L3536.2 262.331C3541.43 256.58 3549.37 253.064 3561.63 253.064V233.064ZM3521.33 248.952C3511.89 259.548 3507.63 273.209 3507.63 288.892H3527.63C3527.63 276.911 3530.81 268.38 3536.27 262.256L3521.33 248.952ZM3507.63 288.892C3507.63 305.035 3512.05 319.018 3521.92 329.663L3536.59 316.065C3530.96 309.99 3527.63 301.325 3527.63 288.892H3507.63ZM3521.92 329.663C3531.99 340.513 3545.77 345.404 3561.86 345.404V325.404C3549.98 325.404 3542.03 321.935 3536.59 316.065L3521.92 329.663ZM3561.86 345.404C3577.68 345.404 3591.26 340.725 3600.81 329.955L3585.84 316.685C3581.11 322.027 3573.7 325.404 3561.86 325.404V345.404ZM3600.8 329.964C3610.25 319.326 3614.27 304.915 3614.27 288.208H3594.27C3594.27 301.901 3590.99 310.898 3585.85 316.676L3600.8 329.964ZM3614.27 288.208C3614.27 271.585 3610.29 257.263 3600.47 247.238L3586.18 261.234C3590.95 266.105 3594.27 274.431 3594.27 288.208H3614.27ZM3600.54 247.314C3590.92 237.279 3577.34 233.064 3561.63 233.064V253.064C3573.89 253.064 3581.45 256.297 3586.11 261.158L3600.54 247.314ZM3863.78 406.084L3868.74 414.766L3868.77 414.752L3868.79 414.738L3863.78 406.084ZM3872.45 370.06L3864.13 375.607L3864.2 375.712L3864.27 375.815L3872.45 370.06ZM3856.03 358.66L3851.97 367.798L3852.04 367.83L3852.11 367.86L3856.03 358.66ZM3819.09 346.576L3821.69 336.918L3821.63 336.902L3821.56 336.886L3819.09 346.576ZM3778.28 331.984L3773.72 340.881L3773.79 340.917L3773.86 340.951L3778.28 331.984ZM3751.15 309.184L3742.91 314.855L3742.95 314.9L3742.98 314.946L3751.15 309.184ZM3753.43 236.908L3761.46 242.871L3761.48 242.844L3761.5 242.817L3753.43 236.908ZM3787.63 211.828L3791.33 221.119L3791.35 221.11L3791.38 221.1L3787.63 211.828ZM3896.16 210.916L3892.83 220.346L3892.87 220.36L3892.91 220.375L3896.16 210.916ZM3936.06 230.98L3944.36 236.551L3949.73 228.549L3941.93 222.888L3936.06 230.98ZM3911.43 267.688L3906.04 276.108L3914.28 281.39L3919.74 273.259L3911.43 267.688ZM3879.74 252.64L3876.43 262.075L3876.5 262.101L3876.58 262.127L3879.74 252.64ZM3812.25 252.868L3806.94 244.399L3806.89 244.427L3806.85 244.456L3812.25 252.868ZM3807.47 283.192L3799.94 289.777L3800.09 289.944L3800.24 290.104L3807.47 283.192ZM3825.25 293.452L3821.59 302.76L3821.69 302.799L3821.79 302.835L3825.25 293.452ZM3862.19 305.08L3859.44 314.695L3859.5 314.713L3859.56 314.73L3862.19 305.08ZM3903 320.128L3898.53 329.072L3898.55 329.084L3898.57 329.095L3903 320.128ZM3930.13 343.156L3938.45 337.609L3938.45 337.609L3930.13 343.156ZM3924.43 424.096L3916.97 417.434L3916.97 417.434L3924.43 424.096ZM3884.07 449.632L3887.21 459.128L3887.24 459.119L3887.26 459.11L3884.07 449.632ZM3770.3 448.036L3766.72 457.372L3766.72 457.372L3770.3 448.036ZM3726.98 422.728L3719.51 416.081L3712.8 423.628L3720.41 430.266L3726.98 422.728ZM3758.22 387.616L3764.42 379.77L3757.02 373.921L3750.75 380.969L3758.22 387.616ZM3790.37 406.084L3786.61 415.352L3786.63 415.361L3786.65 415.369L3790.37 406.084ZM3829.81 423.38C3844.96 423.38 3858.2 420.793 3868.74 414.766L3858.82 397.402C3852.34 401.103 3842.93 403.38 3829.81 403.38V423.38ZM3868.79 414.738C3880.11 408.185 3886.78 398.118 3886.78 385.108H3866.78C3866.78 390.034 3864.78 393.951 3858.77 397.43L3868.79 414.738ZM3886.78 385.108C3886.78 377.503 3884.9 370.382 3880.62 364.305L3864.27 375.815C3865.77 377.946 3866.78 380.857 3866.78 385.108H3886.78ZM3880.77 364.513C3876.39 357.94 3868.7 353.185 3859.95 349.46L3852.11 367.86C3859.78 371.127 3863.04 373.972 3864.13 375.607L3880.77 364.513ZM3860.09 349.522C3851.16 345.552 3838.25 341.365 3821.69 336.918L3816.5 356.234C3832.77 360.603 3844.49 364.472 3851.97 367.798L3860.09 349.522ZM3821.56 336.886C3806.59 333.069 3793.67 328.424 3782.71 323.017L3773.86 340.951C3786.31 347.096 3800.59 352.179 3816.62 356.266L3821.56 336.886ZM3782.85 323.087C3772.53 317.79 3764.8 311.193 3759.32 303.422L3742.98 314.946C3750.57 325.719 3760.94 334.322 3773.72 340.881L3782.85 323.087ZM3759.39 303.513C3754.41 296.291 3751.57 286.703 3751.57 274.072H3731.57C3731.57 289.713 3735.12 303.533 3742.91 314.855L3759.39 303.513ZM3751.57 274.072C3751.57 261.932 3754.92 251.669 3761.46 242.871L3745.4 230.945C3736.13 243.427 3731.57 257.94 3731.57 274.072H3751.57ZM3761.5 242.817C3768.09 233.818 3777.83 226.492 3791.33 221.119L3783.93 202.537C3767.64 209.02 3754.58 218.414 3745.36 230.999L3761.5 242.817ZM3791.38 221.1C3804.93 215.622 3821.68 212.708 3841.89 212.708V192.708C3819.85 192.708 3800.42 195.874 3783.88 202.556L3791.38 221.1ZM3841.89 212.708C3861.71 212.708 3878.63 215.334 3892.83 220.346L3899.49 201.486C3882.68 195.554 3863.42 192.708 3841.89 192.708V212.708ZM3892.91 220.375C3907.66 225.433 3920.03 231.701 3930.18 239.072L3941.93 222.888C3929.9 214.147 3915.67 207.039 3899.4 201.457L3892.91 220.375ZM3927.75 225.409L3903.13 262.117L3919.74 273.259L3944.36 236.551L3927.75 225.409ZM3916.83 259.268C3906.38 252.572 3895.06 247.204 3882.91 243.153L3876.58 262.127C3887.23 265.676 3897.04 270.34 3906.04 276.108L3916.83 259.268ZM3883.06 243.205C3870.65 238.845 3857.36 236.712 3843.26 236.712V256.712C3855.31 256.712 3866.34 258.531 3876.43 262.075L3883.06 243.205ZM3843.26 236.712C3828.59 236.712 3815.91 238.764 3806.94 244.399L3817.57 261.337C3821.67 258.764 3829.67 256.712 3843.26 256.712V236.712ZM3806.85 244.456C3797.74 250.311 3792.68 259.108 3792.68 269.968H3812.68C3812.68 266.236 3814 263.633 3817.66 261.28L3806.85 244.456ZM3792.68 269.968C3792.68 277.384 3795.04 284.179 3799.94 289.777L3814.99 276.607C3813.51 274.909 3812.68 272.888 3812.68 269.968H3792.68ZM3800.24 290.104C3805.13 295.213 3812.72 299.275 3821.59 302.76L3828.91 284.144C3820.75 280.941 3816.49 278.163 3814.69 276.28L3800.24 290.104ZM3821.79 302.835C3830.81 306.156 3843.4 310.111 3859.44 314.695L3864.93 295.465C3849.06 290.929 3837.02 287.132 3828.71 284.069L3821.79 302.835ZM3859.56 314.73C3874.74 318.854 3887.69 323.656 3898.53 329.072L3907.47 311.184C3895.2 305.048 3880.95 299.818 3864.81 295.43L3859.56 314.73ZM3898.57 329.095C3908.92 334.2 3916.53 340.777 3921.81 348.703L3938.45 337.609C3930.97 326.383 3920.49 317.608 3907.42 311.161L3898.57 329.095ZM3921.81 348.703C3926.78 356.156 3929.71 366.577 3929.71 380.776H3949.71C3949.71 363.967 3946.25 349.308 3938.45 337.609L3921.81 348.703ZM3929.71 380.776C3929.71 396.175 3925.29 408.129 3916.97 417.434L3931.89 430.758C3943.94 417.263 3949.71 400.337 3949.71 380.776H3929.71ZM3916.97 417.434C3908.11 427.353 3896.22 434.996 3880.89 440.154L3887.26 459.11C3905.37 453.02 3920.38 443.639 3931.89 430.758L3916.97 417.434ZM3880.94 440.136C3865.49 445.238 3848.55 447.84 3830.04 447.84V467.84C3850.44 467.84 3869.52 464.97 3887.21 459.128L3880.94 440.136ZM3830.04 447.84C3808.17 447.84 3789.52 444.703 3773.89 438.7L3766.72 457.372C3785.13 464.441 3806.31 467.84 3830.04 467.84V447.84ZM3773.89 438.7C3757.79 432.518 3744.4 424.645 3733.55 415.19L3720.41 430.266C3733.28 441.483 3748.77 450.482 3766.72 457.372L3773.89 438.7ZM3734.45 429.375L3765.69 394.263L3750.75 380.969L3719.51 416.081L3734.45 429.375ZM3752.02 395.462C3762.24 403.542 3773.79 410.16 3786.61 415.352L3794.12 396.816C3782.92 392.28 3773.04 386.586 3764.42 379.77L3752.02 395.462ZM3786.65 415.369C3800.08 420.742 3814.5 423.38 3829.81 423.38V403.38C3816.85 403.38 3804.97 401.154 3794.08 396.799L3786.65 415.369ZM4230 209.548L4239.47 212.753L4243.94 199.548H4230V209.548ZM4148.15 451.456L4157.62 454.662L4157.62 454.661L4148.15 451.456ZM4081.8 535.816L4077.3 526.888L4077.24 526.914L4077.2 526.94L4081.8 535.816ZM4022.52 550.636L4012.67 552.339L4014.2 561.198L4023.17 560.615L4022.52 550.636ZM4015 507.088L4013.61 497.185L4003.39 498.618L4005.14 508.791L4015 507.088ZM4077.24 478.816L4069.42 472.589L4069.38 472.638L4069.34 472.688L4077.24 478.816ZM4092.52 451L4101.85 454.581L4107.06 441H4092.52V451ZM4072 451L4062.49 454.114L4064.75 461H4072V451ZM3992.88 209.548V199.548H3979.08L3983.38 212.662L3992.88 209.548ZM4056.49 209.548L4066.14 206.925L4064.14 199.548H4056.49V209.548ZM4111.21 410.872L4101.56 413.495L4111.02 448.275L4120.83 413.596L4111.21 410.872ZM4168.21 209.548V199.548H4160.65L4158.59 206.824L4168.21 209.548ZM4220.53 206.343L4138.68 448.251L4157.62 454.661L4239.47 212.753L4220.53 206.343ZM4138.68 448.25C4132.27 467.177 4124.06 483.138 4114.17 496.286L4130.15 508.314C4141.53 493.19 4150.65 475.255 4157.62 454.662L4138.68 448.25ZM4114.17 496.286C4104.48 509.16 4092.23 519.35 4077.3 526.888L4086.31 544.744C4103.9 535.866 4118.56 523.712 4130.15 508.314L4114.17 496.286ZM4077.2 526.94C4062.61 534.505 4044.29 539.202 4021.87 540.657L4023.17 560.615C4047.57 559.03 4068.76 553.847 4086.41 544.692L4077.2 526.94ZM4032.37 548.933L4024.85 505.385L4005.14 508.791L4012.67 552.339L4032.37 548.933ZM4016.38 516.991C4033.17 514.638 4047.25 511.028 4058.23 505.883L4049.74 487.773C4041.26 491.748 4029.35 494.978 4013.61 497.185L4016.38 516.991ZM4058.23 505.883C4069.19 500.745 4078.27 493.809 4085.14 484.944L4069.34 472.688C4064.66 478.719 4058.24 483.791 4049.74 487.773L4058.23 505.883ZM4085.06 485.043C4091.76 476.626 4097.32 466.405 4101.85 454.581L4083.18 447.419C4079.2 457.787 4074.57 466.11 4069.42 472.589L4085.06 485.043ZM4092.52 441H4072V461H4092.52V441ZM4081.5 447.886L4002.38 206.434L3983.38 212.662L4062.49 454.114L4081.5 447.886ZM3992.88 219.548H4056.49V199.548H3992.88V219.548ZM4046.84 212.171L4101.56 413.495L4120.86 408.249L4066.14 206.925L4046.84 212.171ZM4120.83 413.596L4177.83 212.272L4158.59 206.824L4101.59 408.148L4120.83 413.596ZM4168.21 219.548H4230V199.548H4168.21V219.548ZM4284.77 451H4274.77V461H4284.77V451ZM4284.77 209.548V199.548H4274.77V209.548H4284.77ZM4337.21 209.548L4347.11 208.113L4345.86 199.548H4337.21V209.548ZM4341.54 239.416L4331.65 240.851L4334.82 262.761L4349.16 245.892L4341.54 239.416ZM4376.43 212.056L4380.68 221.104L4380.73 221.084L4380.77 221.063L4376.43 212.056ZM4467.85 221.632L4460.43 228.336L4460.46 228.359L4460.48 228.381L4467.85 221.632ZM4484.95 451V461H4494.95V451H4484.95ZM4424.76 451H4414.76V461H4424.76V451ZM4422.48 268.6L4412.68 270.6L4412.69 270.62L4412.69 270.64L4422.48 268.6ZM4413.82 252.64L4407.64 260.503L4407.73 260.573L4407.82 260.64L4413.82 252.64ZM4376.43 251.956L4372.14 242.923L4372.09 242.944L4372.05 242.966L4376.43 251.956ZM4359.55 263.584L4352.81 256.204L4352.75 256.252L4352.7 256.302L4359.55 263.584ZM4344.96 279.772L4337.04 273.675L4334.96 276.371V279.772H4344.96ZM4344.96 451V461H4354.96V451H4344.96ZM4294.77 451V209.548H4274.77V451H4294.77ZM4284.77 219.548H4337.21V199.548H4284.77V219.548ZM4327.31 210.983L4331.65 240.851L4351.44 237.981L4347.11 208.113L4327.31 210.983ZM4349.16 245.892C4358.68 234.691 4369.2 226.509 4380.68 221.104L4372.17 203.008C4357.81 209.763 4345.07 219.821 4333.92 232.94L4349.16 245.892ZM4380.77 221.063C4392.28 215.51 4404.7 212.708 4418.15 212.708V192.708C4401.81 192.708 4386.41 196.138 4372.08 203.049L4380.77 221.063ZM4418.15 212.708C4437.9 212.708 4451.43 218.369 4460.43 228.336L4475.27 214.928C4461.48 199.663 4441.88 192.708 4418.15 192.708V212.708ZM4460.48 228.381C4469.68 238.449 4474.95 253.284 4474.95 274.3H4494.95C4494.95 250.02 4488.82 229.743 4475.23 214.883L4460.48 228.381ZM4474.95 274.3V451H4494.95V274.3H4474.95ZM4484.95 441H4424.76V461H4484.95V441ZM4434.76 451V297.784H4414.76V451H4434.76ZM4434.76 297.784C4434.76 285.31 4433.99 274.813 4432.27 266.56L4412.69 270.64C4414.01 276.979 4414.76 285.938 4414.76 297.784H4434.76ZM4432.28 266.6C4430.48 257.773 4426.73 249.822 4419.82 244.64L4407.82 260.64C4409.42 261.842 4411.45 264.531 4412.68 270.6L4432.28 266.6ZM4420 244.777C4413.3 239.516 4404.6 237.624 4395.35 237.624V257.624C4402.22 257.624 4405.82 259.076 4407.64 260.503L4420 244.777ZM4395.35 237.624C4387.29 237.624 4379.52 239.418 4372.14 242.923L4380.72 260.989C4385.5 258.718 4390.34 257.624 4395.35 257.624V237.624ZM4372.05 242.966C4365.18 246.311 4358.77 250.752 4352.81 256.204L4366.3 270.964C4370.98 266.688 4375.82 263.377 4380.81 260.946L4372.05 242.966ZM4352.7 256.302C4347.12 261.551 4341.9 267.347 4337.04 273.675L4352.89 285.869C4357.14 280.341 4361.65 275.345 4366.41 270.866L4352.7 256.302ZM4334.96 279.772V451H4354.96V279.772H4334.96ZM4344.96 441H4284.77V461H4344.96V441ZM4766.58 437.548L4772.1 445.89L4779.7 440.864L4775.4 432.829L4766.58 437.548ZM4733.98 452.14L4736.83 461.725L4733.98 452.14ZM4625.91 435.04L4618.73 442.004L4618.75 442.022L4618.77 442.039L4625.91 435.04ZM4603.56 252.184H4613.56V242.184H4603.56V252.184ZM4551.12 252.184H4541.12V262.184H4551.12V252.184ZM4551.12 209.548V199.548H4541.12V209.548H4551.12ZM4603.56 209.548V219.548H4613.56V209.548H4603.56ZM4603.56 156.424L4602.36 146.497L4593.56 147.563V156.424H4603.56ZM4663.76 149.128H4673.76V137.843L4662.55 139.201L4663.76 149.128ZM4663.76 209.548H4653.76V219.548H4663.76V209.548ZM4743.56 209.548L4753.45 210.977L4755.1 199.548H4743.56V209.548ZM4737.4 252.184V262.184H4746.06L4747.3 253.613L4737.4 252.184ZM4663.76 252.184V242.184H4653.76V252.184H4663.76ZM4672.88 401.068L4679.76 393.818L4679.76 393.818L4672.88 401.068ZM4726 406.768L4728.67 416.406L4728.73 416.388L4728.8 416.368L4726 406.768ZM4745.84 398.788L4754.65 394.069L4749.92 385.231L4741.1 389.983L4745.84 398.788ZM4761.07 429.206C4753.09 434.479 4743.17 438.972 4731.13 442.555L4736.83 461.725C4750.33 457.708 4762.14 452.473 4772.1 445.89L4761.07 429.206ZM4731.13 442.555C4719.39 446.05 4706.53 447.84 4692.48 447.84V467.84C4708.23 467.84 4723.04 465.83 4736.83 461.725L4731.13 442.555ZM4692.48 447.84C4664.62 447.84 4645.44 440.678 4633.05 428.041L4618.77 442.039C4636.17 459.802 4661.37 467.84 4692.48 467.84V447.84ZM4633.09 428.076C4620.33 414.932 4613.56 397.239 4613.56 373.936H4593.56C4593.56 401.401 4601.69 424.444 4618.73 442.004L4633.09 428.076ZM4613.56 373.936V252.184H4593.56V373.936H4613.56ZM4603.56 242.184H4551.12V262.184H4603.56V242.184ZM4561.12 252.184V209.548H4541.12V252.184H4561.12ZM4551.12 219.548H4603.56V199.548H4551.12V219.548ZM4613.56 209.548V156.424H4593.56V209.548H4613.56ZM4604.77 166.351L4664.96 159.055L4662.55 139.201L4602.36 146.497L4604.77 166.351ZM4653.76 149.128V209.548H4673.76V149.128H4653.76ZM4663.76 219.548H4743.56V199.548H4663.76V219.548ZM4733.66 208.119L4727.5 250.755L4747.3 253.613L4753.45 210.977L4733.66 208.119ZM4737.4 242.184H4663.76V262.184H4737.4V242.184ZM4653.76 252.184V373.708H4673.76V252.184H4653.76ZM4653.76 373.708C4653.76 387.581 4657.13 399.9 4665.99 408.318L4679.76 393.818C4676.47 390.684 4673.76 384.763 4673.76 373.708H4653.76ZM4665.99 408.318C4674.78 416.674 4687.69 419.732 4702.29 419.732V399.732C4689.83 399.732 4683.13 397.014 4679.76 393.818L4665.99 408.318ZM4702.29 419.732C4711.71 419.732 4720.52 418.659 4728.67 416.406L4723.33 397.13C4717.19 398.829 4710.2 399.732 4702.29 399.732V419.732ZM4728.8 416.368C4736.68 414.068 4743.96 411.156 4750.58 407.593L4741.1 389.983C4735.86 392.804 4729.91 395.212 4723.2 397.168L4728.8 416.368ZM4737.02 403.507L4757.77 442.267L4775.4 432.829L4754.65 394.069L4737.02 403.507ZM5028.38 407.68L5019.97 413.088L5020.01 413.158L5020.06 413.227L5028.38 407.68ZM5041.6 417.028L5051.12 420.093L5054.11 410.811L5044.91 407.589L5041.6 417.028ZM5028.61 457.384L5027.55 467.328L5035.63 468.184L5038.12 460.449L5028.61 457.384ZM4995.55 447.808L4990.55 456.472L4990.64 456.522L4990.73 456.57L4995.55 447.808ZM4974.8 424.78L4983.82 420.47L4977.05 406.292L4967.07 418.43L4974.8 424.78ZM4940.14 449.632L4936.5 440.32L4936.48 440.326L4936.46 440.333L4940.14 449.632ZM4838 436.864L4831.04 444.048L4838 436.864ZM4846.43 323.092L4852.11 331.325L4852.12 331.321L4852.12 331.316L4846.43 323.092ZM4965.91 302.116V312.116H4975.91V302.116H4965.91ZM4952.68 258.112L4946.73 266.145L4946.77 266.179L4946.82 266.211L4952.68 258.112ZM4885.42 251.5L4887.11 261.357L4887.16 261.348L4887.21 261.339L4885.42 251.5ZM4849.63 260.848L4840.18 264.135L4843.46 273.559L4852.89 270.299L4849.63 260.848ZM4835.26 219.58L4831.74 210.22L4822.61 213.655L4825.82 222.867L4835.26 219.58ZM4881.55 206.812L4879.82 196.961L4879.82 196.963L4879.81 196.964L4881.55 206.812ZM4999.65 224.368L4993.05 231.877L4993.07 231.894L4993.09 231.911L4999.65 224.368ZM4943.79 406.54L4938.98 397.772L4938.95 397.788L4938.92 397.805L4943.79 406.54ZM4965.91 384.88L4974.58 389.857L4975.91 387.545V384.88H4965.91ZM4965.91 337.912H4975.91V327.912H4965.91V337.912ZM4893.63 348.628L4887.83 340.482L4887.8 340.503L4887.77 340.524L4893.63 348.628ZM4888.39 405.172L4881.4 412.328L4881.45 412.371L4881.49 412.413L4888.39 405.172ZM5014.27 387.388C5014.27 397.207 5015.64 406.361 5019.97 413.088L5036.79 402.272C5035.64 400.487 5034.27 396.113 5034.27 387.388H5014.27ZM5020.06 413.227C5024.32 419.624 5030.8 423.841 5038.3 426.467L5044.91 407.589C5040.25 405.959 5037.91 403.944 5036.7 402.133L5020.06 413.227ZM5032.08 413.963L5019.09 454.319L5038.12 460.449L5051.12 420.093L5032.08 413.963ZM5029.66 447.44C5017.74 446.178 5008.07 443.284 5000.37 439.046L4990.73 456.57C5001.26 462.364 5013.63 465.854 5027.55 467.328L5029.66 447.44ZM5000.54 439.144C4993.48 435.078 4987.9 429.001 4983.82 420.47L4965.77 429.09C4971.43 440.927 4979.67 450.202 4990.55 456.472L5000.54 439.144ZM4967.07 418.43C4959.09 428.145 4948.97 435.441 4936.5 440.32L4943.79 458.944C4959.29 452.879 4972.27 443.607 4982.52 431.13L4967.07 418.43ZM4936.46 440.333C4923.83 445.332 4910.56 447.84 4896.59 447.84V467.84C4913.03 467.84 4928.79 464.876 4943.82 458.931L4936.46 440.333ZM4896.59 447.84C4873.95 447.84 4857.13 441.469 4844.95 429.68L4831.04 444.048C4847.75 460.227 4869.99 467.84 4896.59 467.84V447.84ZM4844.95 429.68C4832.69 417.8 4826.34 402.341 4826.34 382.372H4806.34C4806.34 407.091 4814.43 427.96 4831.04 444.048L4844.95 429.68ZM4826.34 382.372C4826.34 359.761 4834.92 343.174 4852.11 331.325L4840.76 314.859C4817.82 330.674 4806.34 353.607 4806.34 382.372H4826.34ZM4852.12 331.316C4870.02 318.936 4896.3 312.116 4932.16 312.116V292.116C4894.16 292.116 4863.28 299.28 4840.75 314.868L4852.12 331.316ZM4932.16 312.116H4965.91V292.116H4932.16V312.116ZM4975.91 302.116V289.12H4955.91V302.116H4975.91ZM4975.91 289.12C4975.91 272.726 4970.74 258.841 4958.55 250.013L4946.82 266.211C4952.26 270.151 4955.91 276.938 4955.91 289.12H4975.91ZM4958.64 250.079C4947.42 241.763 4932.28 238.308 4914.61 238.308V258.308C4930.06 258.308 4940.31 261.389 4946.73 266.145L4958.64 250.079ZM4914.61 238.308C4906.03 238.308 4895.65 239.476 4883.63 241.661L4887.21 261.339C4898.6 259.268 4907.68 258.308 4914.61 258.308V238.308ZM4883.74 241.643C4871.59 243.721 4859.13 246.982 4846.36 251.397L4852.89 270.299C4864.75 266.202 4876.15 263.231 4887.11 261.357L4883.74 241.643ZM4859.07 257.561L4844.71 216.293L4825.82 222.867L4840.18 264.135L4859.07 257.561ZM4838.78 228.939C4853.58 223.372 4868.41 219.284 4883.28 216.66L4879.81 196.964C4863.67 199.812 4847.65 204.236 4831.74 210.22L4838.78 228.939ZM4883.27 216.663C4898.49 214.003 4912.11 212.708 4924.18 212.708V192.708C4910.72 192.708 4895.92 194.149 4879.82 196.961L4883.27 216.663ZM4924.18 212.708C4956.93 212.708 4979.23 219.724 4993.05 231.877L5006.25 216.859C4987.24 200.132 4959.23 192.708 4924.18 192.708V212.708ZM4993.09 231.911C5006.87 243.907 5014.27 261.183 5014.27 285.244H5034.27C5034.27 256.713 5025.27 233.405 5006.22 216.825L4993.09 231.911ZM5014.27 285.244V387.388H5034.27V285.244H5014.27ZM4916.2 424.292C4927.29 424.292 4938.14 421.135 4948.66 415.275L4938.92 397.805C4930.89 402.281 4923.36 404.292 4916.2 404.292V424.292ZM4948.6 415.308C4959.63 409.261 4968.34 400.733 4974.58 389.857L4957.23 379.903C4952.83 387.571 4946.8 393.483 4938.98 397.772L4948.6 415.308ZM4975.91 384.88V337.912H4955.91V384.88H4975.91ZM4965.91 327.912H4942.19V347.912H4965.91V327.912ZM4942.19 327.912C4919.25 327.912 4900.45 331.492 4887.83 340.482L4899.43 356.774C4906.87 351.476 4920.45 347.912 4942.19 347.912V327.912ZM4887.77 340.524C4875.08 349.702 4868.81 362.942 4868.81 378.952H4888.81C4888.81 368.818 4892.42 361.842 4899.49 356.731L4887.77 340.524ZM4868.81 378.952C4868.81 392.151 4872.62 403.752 4881.4 412.328L4895.37 398.016C4891.39 394.128 4888.81 388.249 4888.81 378.952H4868.81ZM4881.49 412.413C4890.34 420.844 4902.46 424.292 4916.2 424.292V404.292C4905.62 404.292 4899.2 401.66 4895.28 397.931L4881.49 412.413ZM5149.72 451V461H5155.58L5158.45 455.887L5149.72 451ZM5083.83 451L5075.52 445.446L5065.13 461H5083.83V451ZM5168.65 324.004L5176.96 329.558L5180.67 324.014L5176.97 318.465L5168.65 324.004ZM5092.5 209.548V199.548H5073.83L5084.17 215.087L5092.5 209.548ZM5160.9 209.548L5169.67 204.746L5166.82 199.548H5160.9V209.548ZM5205.58 291.172L5196.81 295.974L5205.65 312.119L5214.39 295.917L5205.58 291.172ZM5249.59 209.548V199.548H5243.62L5240.79 204.803L5249.59 209.548ZM5314.8 209.548L5323.16 215.032L5333.31 199.548H5314.8V209.548ZM5241.38 321.496L5233.02 316.012L5229.42 321.5L5233.02 326.985L5241.38 321.496ZM5326.42 451V461H5344.95L5334.78 445.511L5326.42 451ZM5257.11 451L5248.43 455.966L5251.31 461H5257.11V451ZM5202.85 356.152L5211.53 351.186L5202.76 335.853L5194.12 351.265L5202.85 356.152ZM5149.72 441H5083.83V461H5149.72V441ZM5092.15 456.554L5176.96 329.558L5160.33 318.45L5075.52 445.446L5092.15 456.554ZM5176.97 318.465L5100.82 204.009L5084.17 215.087L5160.32 329.543L5176.97 318.465ZM5092.5 219.548H5160.9V199.548H5092.5V219.548ZM5152.12 214.35L5196.81 295.974L5214.36 286.37L5169.67 204.746L5152.12 214.35ZM5214.39 295.917L5258.39 214.293L5240.79 204.803L5196.78 286.427L5214.39 295.917ZM5249.59 219.548H5314.8V199.548H5249.59V219.548ZM5306.43 204.064L5233.02 316.012L5249.74 326.98L5323.16 215.032L5306.43 204.064ZM5233.02 326.985L5318.07 456.489L5334.78 445.511L5249.74 316.007L5233.02 326.985ZM5326.42 441H5257.11V461H5326.42V441ZM5265.79 446.034L5211.53 351.186L5194.17 361.118L5248.43 455.966L5265.79 446.034ZM5194.12 351.265L5141 446.113L5158.45 455.887L5211.57 361.039L5194.12 351.265Z" fill="url(#paint8_linear_317_4)"/>
<defs>
<linearGradient id="paint0_linear_317_4" x1="454.596" y1="60" x2="454.101" y2="573" gradientUnits="userSpaceOnUse">
<stop stop-color="#11AE91"/>
<stop offset="1" stop-color="#2A6358"/>
</linearGradient>
<linearGradient id="paint1_linear_317_4" x1="454.222" y1="60" x2="454.636" y2="573" gradientUnits="userSpaceOnUse">
<stop stop-color="#11AE91"/>
<stop offset="1" stop-color="#2A6358"/>
</linearGradient>
<linearGradient id="paint2_linear_317_4" x1="454" y1="60" x2="453.504" y2="573" gradientUnits="userSpaceOnUse">
<stop stop-color="#E2BB57"/>
<stop offset="1" stop-color="#6A551D"/>
</linearGradient>
<linearGradient id="paint3_linear_317_4" x1="147.529" y1="62.5" x2="147.529" y2="573" gradientUnits="userSpaceOnUse">
<stop stop-color="#E2BB57"/>
<stop offset="1" stop-color="#6A551D"/>
</linearGradient>
<linearGradient id="paint4_linear_317_4" x1="454.222" y1="60" x2="454.222" y2="573" gradientUnits="userSpaceOnUse">
<stop stop-color="#6F7385"/>
<stop offset="1" stop-color="#3F4149"/>
</linearGradient>
<linearGradient id="paint5_linear_317_4" x1="454.222" y1="60" x2="454.222" y2="573" gradientUnits="userSpaceOnUse">
<stop stop-color="#6F7385"/>
<stop offset="1" stop-color="#3F4149"/>
</linearGradient>
<linearGradient id="paint6_linear_317_4" x1="454.222" y1="60" x2="454.222" y2="573" gradientUnits="userSpaceOnUse">
<stop stop-color="#6F7385"/>
<stop offset="1" stop-color="#3F4149"/>
</linearGradient>
<linearGradient id="paint7_linear_317_4" x1="454.222" y1="60" x2="454.222" y2="573" gradientUnits="userSpaceOnUse">
<stop stop-color="#6F7385"/>
<stop offset="1" stop-color="#3F4149"/>
</linearGradient>
<linearGradient id="paint8_linear_317_4" x1="3154.5" y1="153" x2="3154.5" y2="541" gradientUnits="userSpaceOnUse">
<stop stop-color="#6F7385"/>
<stop offset="1" stop-color="#3F4149"/>
</linearGradient>
</defs>
</svg>
